<svg xmlns="http://www.w3.org/2000/svg" viewBox="0 0 7426.29 1486.67"><defs><style>.cls-1,.cls-9{fill:#231f20;}.cls-2{fill:#985e26;}.cls-3{fill:#6bbe45;}.cls-4{fill:none;stroke:#231f20;stroke-miterlimit:10;stroke-width:50px;}.cls-5{fill:#f1572f;}.cls-6{fill:#f7b237;}.cls-7{fill:#b1742a;}.cls-8{fill:#985e25;}.cls-9{font-size:93.13px;font-family:Posterama2001-Regular, "Posterama 2001";}</style></defs><g id="Layer_2" data-name="Layer 2"><g id="Layer_1-2" data-name="Layer 1"><path class="cls-1" d="M78,714H22c-16,0-22-5-22-22V37C0,14,5,4,20,4c11,0,19,8,38,29L337,368,612,33c21-23,27-29,38-29,15,0,20,10,20,33V692c0,17-6,22-22,22H592c-16,0-22-5-22-22V226L370,472c-17,23-24,28-35,28s-18-5-35-28L100,226V692C100,709,94,714,78,714Z"/><path class="cls-1" d="M829,714H777c-13,0-20-4-20-13,0-3,2-9,5-17L1063,50c20-41,26-50,39-50,12,0,17,9,37,50l304,634c3,8,5,14,5,17,0,9-7,13-21,13h-56c-21,0-28-6-40-30L1100,186,869,684C858,708,850,714,829,714Z"/><path class="cls-1" d="M1753,14c165,0,263,57,263,186,0,81-37,128-104,152,76,19,124,73,124,157,0,143-100,205-280,205H1557c-16,0-22-5-22-22V36c0-17,6-22,22-22ZM1635,304c0,8,3,12,12,12h113c101,0,152-35,152-106,0-72-55-104-166-104h-99c-9,0-12,4-12,12Zm129,103H1647c-9,0-12,3-12,12V610c0,8,3,12,12,12h109c123,0,176-31,176-112C1932,435,1875,407,1764,407Z"/><path class="cls-1" d="M2183,714c-16,0-22-5-22-22V36c0-17,6-22,22-22h56c16,0,22,5,22,22V692c0,17-6,22-22,22Z"/><path class="cls-1" d="M2435,560c61,47,122,71,183,71,92,0,151-42,151-107,0-62-38-85-158-116-140-35-216-84-216-201C2395,80,2497,3,2631,3c84,0,160,26,228,79,7,5,10,10,10,15,0,4-3,9-7,16l-29,43c-5,8-10,11-15,11s-10-2-17-7c-53-39-108-63-171-63-76,0-130,40-130,104,0,65,45,89,154,116,152,39,219,89,219,200,0,126-107,208-257,208-91,0-170-33-237-86-7-7-11-12-11-17s2-10,7-17l30-42c5-7,10-11,15-11C2423,552,2428,555,2435,560Z"/><path class="cls-2" d="M132.23,1213.62,6.13,891.41a25.09,25.09,0,0,1-1.55-7.67c0-5.62,3.09-7.67,11.33-7.67h28.3c10.81,0,13.39,2.56,19,15.34l90.07,241.4,79.78-220.94c6.69-16.88,10.29-22.5,18-22.5,6.69,0,10.81,4.6,17.5,22.5l78.75,219.41,90.07-239.87c5.66-12.27,8.75-15.34,19-15.34h27.79c8.24,0,11.33,2,11.33,7.67a25.09,25.09,0,0,1-1.55,7.67L368,1213.62c-8.23,22-12.35,27.11-19,27.11s-11.32-5.63-19-25.57L250.09,997.79l-79.78,217.37c-6.69,19.94-10.8,25.57-18.52,25.57S140.46,1235.61,132.23,1213.62Z"/><path class="cls-2" d="M887.79,1054.56c1.54,103.83-81.84,187.19-187.35,185.15-102.94,2-185.8-80.3-184.26-183.1C514.64,952.79,598.53,868.4,702.5,870.44,806.46,868.91,889.33,951.25,887.79,1054.56Zm-53.53.51c0-79.27-58.68-136-132.28-136S569.71,976.82,569.71,1056.1c-1.55,76.71,58.67,136.55,131.24,135C773.52,1192.65,835.8,1131.28,834.26,1055.07Z"/><path class="cls-2" d="M1306.73,1054.56c1.55,103.83-81.83,187.19-187.34,185.15-102.94,2-185.8-80.3-184.26-183.1-1.54-103.82,82.35-188.21,186.32-186.17C1225.41,868.91,1308.28,951.25,1306.73,1054.56Zm-53.52.51c0-79.27-58.68-136-132.28-136S988.66,976.82,988.66,1056.1c-1.55,76.71,58.67,136.55,131.24,135C1192.47,1192.65,1254.75,1131.28,1253.21,1055.07Z"/><path class="cls-2" d="M1494.07,876.07c120.44,0,194.56,69.56,194.56,174.91,0,111-77.72,183.1-201.76,183.1H1387c-8.24,0-11.32-2.56-11.32-11.25V887.32c0-8.69,3.08-11.25,11.32-11.25Zm-66.9,303.8c0,4.09,1.54,5.62,6.17,5.62h54.56c93.16,0,147.2-50.63,147.2-132.46,0-77.23-54-128.37-145.14-128.37h-56.62c-4.63,0-6.17,1.53-6.17,5.62Z"/><path class="cls-3" d="M2116.83,1222.83c0,8.69-3.08,11.25-11.32,11.25H1910.44c-8.23,0-11.32-2.56-11.32-11.25V887.32c0-8.69,3.09-11.25,11.32-11.25H2105c8.23,0,11.32,2.56,11.32,11.25V913.4c0,8.7-3.09,11.26-11.32,11.26H1956.77c-4.64,0-6.18,1.53-6.18,5.62v93.6c0,4.6,1.54,6.13,6.18,6.13H2087.5c8.23,0,11.32,2.56,11.32,11.26v25.57c0,8.18-3.09,11.25-11.32,11.25H1956.77c-4.64,0-6.18,1.53-6.18,5.63v96.15c0,4.09,1.54,5.62,6.18,5.62h148.74c8.24,0,11.32,2.56,11.32,11.25Z"/><path class="cls-3" d="M2201.23,1234.08c-8.23,0-11.32-2.56-11.32-11.25V887.32c0-8.69,3.09-11.25,11.32-11.25h28.83c8.23,0,11.32,2.56,11.32,11.25v335.51c0,8.69-3.09,11.25-11.32,11.25Zm245.51-358c6.69,0,9.78,2,9.78,5.63,0,2-1,4.6-3.6,7.16l-139.48,163.66,143.08,168.26c2.57,3.58,4.12,6.14,4.12,7.67,0,3.58-3.61,5.63-10.3,5.63h-35.51c-11.84,0-14.93-2-23.16-11.76l-132.28-158.55c-3.09-3.58-4.63-7.16-4.63-9.72,0-3.07,1.54-6.65,5.15-10.23l130.73-155.48c8.23-10.22,11.84-12.27,22.64-12.27Z"/><path class="cls-3" d="M2849.22,1054.56c1.55,103.83-81.83,187.19-187.34,185.15-102.94,2-185.81-80.3-184.26-183.1-1.55-103.82,82.35-188.21,186.31-186.17C2767.9,868.91,2850.77,951.25,2849.22,1054.56Zm-53.53.51c0-79.27-58.67-136-132.27-136s-132.28,57.79-132.28,137.07c-1.54,76.71,58.68,136.55,131.25,135C2735,1192.65,2797.24,1131.28,2795.69,1055.07Z"/><line class="cls-4" x1="3049.5" y1="0.01" x2="3049.5" y2="1240.72"/><path class="cls-5" d="M3947.79,219.72C3966,80.9,4148.74,39.86,4148.74,39.86s-46.49,128.23,149.41,348.6c179.79,202.31,22.81,400.6-9.4,437.22l-465.16,177.64L3366,825.68c-10.13-12.45-106.85-135.47-73.81-262.91,34.83-134.47,234.05-204.2,244-353.61,0,0,99.57,99.57,39.88,229.07,2.82-1.76,184.24-115.62,184.24-254C3760.29,47,3716.86,1.4,3715.5,0,3718.69,1.61,3873.28,81.06,3947.79,219.72Z"/><path class="cls-6" d="M4098.94,579.39l-62.25,32.86-1.06.55c-58,30.28-129.68,11.71-166.88-42.14A685.21,685.21,0,0,1,3830,508c-16.2,39.34-14.12,80.82-7.24,114a241.36,241.36,0,0,1-78-52.68c-15.23-15.38-27.46-32-34.31-49.64,0,0-37.66,67-24.76,124.15.12.55.29,1.16.51,1.84a381.39,381.39,0,0,1,16.66,89c-31-24.91-76.72-69.19-78.18-114.44,0,0-37.63,68.62,24.35,174.87a223.55,223.55,0,0,0,44,54.24,378.62,378.62,0,0,1-28.47,78.57h0l95.19-17.71,34-10.13a156.67,156.67,0,0,0,25.75,3.49l-.15-11.13,223.72-66.67c-31-37.95,11-91.91,11-91.91S4103.92,654.09,4098.94,579.39Z"/><polygon class="cls-7" points="4288.75 825.68 4397.76 825.68 4397.76 1234.08 3272.23 1234.08 3272.23 825.68 3365.97 825.68 3510.14 825.68 3470.72 689.75 3595.11 653.72 3715.86 825.68 4288.75 825.68"/><path class="cls-8" d="M3869.85,1141.11H3476.41a21.58,21.58,0,0,1,0-43.16h393.44a21.58,21.58,0,0,1,0,43.16Z"/><path class="cls-8" d="M4163.68,1046.49H3770.25a21.59,21.59,0,1,1,0-43.17h393.43a21.59,21.59,0,1,1,0,43.17Z"/><path class="cls-8" d="M3665.66,1046.49H3586a21.59,21.59,0,0,1,0-43.17h79.68a21.59,21.59,0,0,1,0,43.17Z"/><path class="cls-8" d="M4278.23,1046.48a21.54,21.54,0,1,1,15.27-6.31A21.76,21.76,0,0,1,4278.23,1046.48Z"/><path class="cls-8" d="M4029.22,947.9h-74.71a21.58,21.58,0,0,1,0-43.16h74.71a21.58,21.58,0,1,1,0,43.16Z"/><path class="cls-8" d="M3531.19,947.9h-74.7a21.58,21.58,0,1,1,0-43.16h74.7a21.58,21.58,0,0,1,0,43.16Z"/><path class="cls-6" d="M3952.32,505S3897,432,3914.69,343.45C3914.69,343.45,3995.4,401.48,3952.32,505Z"/><path class="cls-6" d="M3538.38,642.28s-64.19-13.29-59.76-68.63-19.92-73-19.92-73,66.4,17.71,68.62,50.91S3538.38,642.28,3538.38,642.28Z"/><rect class="cls-8" x="3272.23" y="1184.44" width="1125.52" height="49.63"/><polygon class="cls-8" points="3510.14 825.68 3562.73 825.68 3509.49 678.52 3470.72 689.75 3510.14 825.68"/><text class="cls-9" transform="translate(1292.38 1307.93) rotate(-89.23) scale(1.39 1)">(</text><path class="cls-1" d="M20.6,1483.55H8.9c-2.93,0-4.5-.89-4.5-2.9a15.16,15.16,0,0,1,1.12-3.79l67.72-141.24c4.5-9.13,5.85-11.14,8.78-11.14,2.7,0,3.82,2,8.32,11.14l68.39,141.24a14.88,14.88,0,0,1,1.13,3.79c0,2-1.58,2.9-4.73,2.9H142.54c-4.73,0-6.3-1.34-9-6.69l-52-110.94-52,110.94C27.12,1482.21,25.32,1483.55,20.6,1483.55Z"/><path class="cls-1" d="M231.18,1327.6c52.64,0,85,30.3,85,76.19,0,48.35-34,79.76-88.19,79.76H184.38c-3.6,0-4.95-1.12-4.95-4.9V1332.5c0-3.78,1.35-4.9,4.95-4.9Zm-29.25,132.33c0,1.79.67,2.45,2.7,2.45h23.85c40.72,0,64.34-22.05,64.34-57.7,0-33.64-23.62-55.91-63.44-55.91H204.63c-2,0-2.7.67-2.7,2.45Z"/><path class="cls-1" d="M345.46,1417.83V1332.5c0-3.78,1.35-4.9,5-4.9h12.38c3.82,0,5.17,1.12,5.17,4.9v84c0,30.52,14.85,48.34,41.85,48.34s42.74-18.26,42.74-48.12V1332.5c0-3.78,1.35-4.9,4.73-4.9h12.6c3.82,0,5.17,1.12,5.17,4.9v84.66c0,45.45-27.45,68.84-66.14,68.84C371.56,1486,345.46,1463.94,345.46,1417.83Z"/><path class="cls-1" d="M634.11,1446.79c1.13,0,2.47,1.11,3.37,2.23l6.53,8.91a5.3,5.3,0,0,1,1.12,3.12q0,1.67-2.7,4A90.51,90.51,0,0,1,584.17,1486c-43.65.89-81-34.53-80.1-79.76-.67-45.67,36-81.76,81.45-81.09a90,90,0,0,1,57.14,20.72c1.57,1.11,2.25,2.23,2.25,3.34a6.43,6.43,0,0,1-1.35,3.57l-6.52,8.69c-1.13,1.55-2.48,2.45-3.6,2.45a8,8,0,0,1-3.83-1.79c-12.82-9.8-28.12-15.81-44.54-15.81-32.18,0-57.6,25-57.6,59.48-.45,33,25.42,59.7,57.6,59a70.12,70.12,0,0,0,45.22-16C631.86,1447.46,633.21,1446.79,634.11,1446.79Z"/><path class="cls-1" d="M766.4,1478.65c0,3.78-1.35,4.9-4.95,4.9H676.18c-3.6,0-4.95-1.12-4.95-4.9V1332.5c0-3.78,1.35-4.9,4.95-4.9h85c3.6,0,4.95,1.12,4.95,4.9v11.37c0,3.78-1.35,4.9-4.95,4.9H696.43c-2,0-2.7.67-2.7,2.45V1392c0,2,.67,2.67,2.7,2.67h57.14c3.6,0,4.95,1.11,4.95,4.9v11.14c0,3.56-1.35,4.9-4.95,4.9H696.43c-2,0-2.7.67-2.7,2.45v41.88c0,1.79.67,2.45,2.7,2.45h65c3.6,0,4.95,1.12,4.95,4.91Z"/><path class="cls-1" d="M815.89,1483.55h-12.6c-3.6,0-4.95-1.12-4.95-4.9V1332.73c0-5.13,1.13-7.35,4.5-7.35,2.48,0,4.28,1.78,8.55,6.46l62.77,74.63L936,1331.84c4.72-5.13,6.07-6.46,8.55-6.46,3.37,0,4.5,2.22,4.5,7.35v145.92c0,3.78-1.35,4.9-5,4.9h-12.6c-3.6,0-4.95-1.12-4.95-4.9V1374.83l-45,54.81c-3.82,5.12-5.4,6.23-7.87,6.23s-4.05-1.11-7.88-6.23l-45-54.81v103.82C820.84,1482.43,819.49,1483.55,815.89,1483.55Z"/><path class="cls-1" d="M1171.13,1446.79c1.12,0,2.47,1.11,3.37,2.23l6.53,8.91a5.3,5.3,0,0,1,1.12,3.12q0,1.67-2.7,4a90.52,90.52,0,0,1-58.27,20.94c-43.64.89-81-34.53-80.09-79.76-.67-45.67,36-81.76,81.44-81.09a90.05,90.05,0,0,1,57.15,20.72c1.57,1.11,2.25,2.23,2.25,3.34a6.43,6.43,0,0,1-1.35,3.57l-6.53,8.69c-1.12,1.55-2.47,2.45-3.6,2.45a8,8,0,0,1-3.82-1.79c-12.83-9.8-28.12-15.81-44.55-15.81-32.17,0-57.59,25-57.59,59.48-.45,33,25.42,59.7,57.59,59a70.08,70.08,0,0,0,45.22-16C1168.88,1447.46,1170.23,1446.79,1171.13,1446.79Z"/><path class="cls-1" d="M1208.92,1483.55h-11.7c-2.92,0-4.5-.89-4.5-2.9a14.88,14.88,0,0,1,1.13-3.79l67.72-141.24c4.5-9.13,5.85-11.14,8.77-11.14,2.7,0,3.82,2,8.32,11.14l68.4,141.24a15.16,15.16,0,0,1,1.12,3.79c0,2-1.57,2.9-4.72,2.9h-12.6c-4.73,0-6.3-1.34-9-6.69l-52-110.94-52,110.94C1215.45,1482.21,1213.65,1483.55,1208.92,1483.55Z"/><path class="cls-1" d="M1459.32,1462.38c3.6,0,5,1.12,5,4.91v11.36c0,3.78-1.35,4.9-5,4.9h-86.61c-3.6,0-5-1.12-5-4.9V1332.5c0-3.78,1.35-4.9,5-4.9h12.59c3.6,0,5,1.12,5,4.9v127.43c0,1.79.68,2.45,2.7,2.45Z"/><path class="cls-1" d="M1543.69,1327.6c52.64,0,85,30.3,85,76.19,0,48.35-34,79.76-88.19,79.76h-43.65c-3.6,0-5-1.12-5-4.9V1332.5c0-3.78,1.35-4.9,5-4.9Zm-29.25,132.33c0,1.79.67,2.45,2.7,2.45H1541c40.72,0,64.34-22.05,64.34-57.7,0-33.64-23.62-55.91-63.44-55.91h-24.75c-2,0-2.7.67-2.7,2.45Z"/><path class="cls-1" d="M1658,1417.83V1332.5c0-3.78,1.35-4.9,5-4.9h12.38c3.82,0,5.17,1.12,5.17,4.9v84c0,30.52,14.85,48.34,41.85,48.34s42.74-18.26,42.74-48.12V1332.5c0-3.78,1.35-4.9,4.73-4.9h12.6c3.82,0,5.17,1.12,5.17,4.9v84.66c0,45.45-27.45,68.84-66.14,68.84C1684.07,1486,1658,1463.94,1658,1417.83Z"/><path class="cls-1" d="M1831,1483.55c-3.6,0-5-1.12-5-4.9V1332.5c0-3.78,1.35-4.9,5-4.9h43c42.75,0,64.12,16,64.12,48.35,0,21.38-11.47,35.2-30.6,41.66l38.7,59.25a8.25,8.25,0,0,1,1.8,4.24c0,1.78-1.58,2.45-5,2.45h-13.27c-5.18,0-6.53-.89-9.9-6l-41.4-65a5.28,5.28,0,0,1-1.35-3.12c0-1.11,1.13-1.78,3.38-2,22.72-2.45,34-12.48,34-30.08,0-20.27-14.63-29.18-41.62-29.18h-21.6c-2,0-2.7.67-2.7,2.67v127.88c0,3.78-1.35,4.9-5,4.9Z"/><path class="cls-1" d="M1965.07,1483.55h-11.7c-2.92,0-4.5-.89-4.5-2.9a14.88,14.88,0,0,1,1.13-3.79l67.71-141.24c4.5-9.13,5.85-11.14,8.78-11.14,2.7,0,3.82,2,8.32,11.14l68.39,141.24a14.88,14.88,0,0,1,1.13,3.79c0,2-1.58,2.9-4.73,2.9H2087c-4.73,0-6.3-1.34-9-6.69l-52-110.94-52,110.94C1971.59,1482.21,1969.79,1483.55,1965.07,1483.55Z"/><path class="cls-1" d="M2190.72,1483.55c-3.6,0-4.95-1.12-4.95-4.9V1332.5c0-3.78,1.35-4.9,4.95-4.9h12.6c3.6,0,4.95,1.12,4.95,4.9v146.15c0,3.78-1.35,4.9-4.95,4.9Z"/><path class="cls-1" d="M2370.7,1327.6c3.6,0,5,1.12,5,4.9v146.15c0,4.9-1.58,7.35-4.5,7.35-2.48,0-4.73-1.56-9.45-6.91l-91.34-106.71v106.27c0,3.78-1.35,4.9-5,4.9h-12.6c-3.6,0-4.95-1.12-4.95-4.9V1332.5c0-5.12,1.35-7.35,4.73-7.35,2.47,0,4.72,1.56,9.22,6.91l91.34,106.71V1332.5c0-3.78,1.35-4.9,4.95-4.9Z"/><path class="cls-1" d="M2597.7,1446.79c1.12,0,2.47,1.11,3.37,2.23l6.53,8.91a5.3,5.3,0,0,1,1.12,3.12q0,1.67-2.7,4a90.52,90.52,0,0,1-58.27,20.94c-43.64.89-81-34.53-80.09-79.76-.67-45.67,36-81.76,81.44-81.09a90.05,90.05,0,0,1,57.15,20.72c1.57,1.11,2.25,2.23,2.25,3.34a6.43,6.43,0,0,1-1.35,3.57l-6.53,8.69c-1.12,1.55-2.47,2.45-3.6,2.45a8,8,0,0,1-3.82-1.79c-12.82-9.8-28.12-15.81-44.55-15.81-32.17,0-57.59,25-57.59,59.48-.45,33,25.42,59.7,57.59,59a70.08,70.08,0,0,0,45.22-16C2595.45,1447.46,2596.8,1446.79,2597.7,1446.79Z"/><path class="cls-1" d="M2635.49,1483.55h-11.7c-2.92,0-4.5-.89-4.5-2.9a14.88,14.88,0,0,1,1.13-3.79l67.72-141.24c4.5-9.13,5.85-11.14,8.77-11.14,2.7,0,3.83,2,8.33,11.14l68.39,141.24a15.16,15.16,0,0,1,1.12,3.79c0,2-1.57,2.9-4.72,2.9h-12.6c-4.72,0-6.3-1.34-9-6.69l-52-110.94-52,110.94C2642,1482.21,2640.22,1483.55,2635.49,1483.55Z"/><path class="cls-1" d="M2805.12,1449.24c13.73,10.47,27.45,15.82,41.17,15.82,20.7,0,34-9.36,34-23.84,0-13.81-8.55-18.94-35.55-25.84-31.5-7.8-48.6-18.72-48.6-44.78,0-28.29,23-45.45,53.1-45.45a81.74,81.74,0,0,1,51.29,17.6c1.58,1.12,2.25,2.23,2.25,3.34,0,.89-.67,2-1.57,3.57l-6.53,9.58c-1.12,1.78-2.25,2.45-3.37,2.45a6.66,6.66,0,0,1-3.83-1.56c-11.92-8.69-24.29-14-38.47-14-17.09,0-29.24,8.91-29.24,23.17,0,14.48,10.12,19.83,34.64,25.84,34.2,8.69,49.27,19.83,49.27,44.56,0,28.07-24.07,46.34-57.82,46.34-20.47,0-38.24-7.35-53.32-19.16-1.57-1.56-2.47-2.67-2.47-3.79a6.52,6.52,0,0,1,1.57-3.79l6.75-9.35c1.13-1.56,2.25-2.45,3.38-2.45C2802.42,1447.46,2803.55,1448.13,2805.12,1449.24Z"/><path class="cls-1" d="M3028.75,1478.65c0,3.78-1.35,4.9-4.95,4.9h-85.27c-3.6,0-5-1.12-5-4.9V1332.5c0-3.78,1.35-4.9,5-4.9h85c3.6,0,4.95,1.12,4.95,4.9v11.37c0,3.78-1.35,4.9-4.95,4.9h-64.79c-2,0-2.7.67-2.7,2.45V1392c0,2,.68,2.67,2.7,2.67h57.14c3.6,0,4.95,1.11,4.95,4.9v11.14c0,3.56-1.35,4.9-4.95,4.9h-57.14c-2,0-2.7.67-2.7,2.45v41.88c0,1.79.68,2.45,2.7,2.45h65c3.6,0,4.95,1.12,4.95,4.91Z"/><path class="cls-1" d="M3152.26,1462.38c3.6,0,4.95,1.12,4.95,4.91v11.36c0,3.78-1.35,4.9-4.95,4.9h-86.62c-3.6,0-4.95-1.12-4.95-4.9V1332.5c0-3.78,1.35-4.9,4.95-4.9h12.6c3.6,0,5,1.12,5,4.9v127.43c0,1.79.68,2.45,2.7,2.45Z"/><path class="cls-1" d="M3280,1478.65c0,3.78-1.35,4.9-4.95,4.9h-85.26c-3.6,0-4.95-1.12-4.95-4.9V1332.5c0-3.78,1.35-4.9,4.95-4.9h85c3.6,0,5,1.12,5,4.9v11.37c0,3.78-1.35,4.9-5,4.9h-64.79c-2,0-2.7.67-2.7,2.45V1392c0,2,.67,2.67,2.7,2.67h57.14c3.6,0,5,1.11,5,4.9v11.14c0,3.56-1.35,4.9-5,4.9h-57.14c-2,0-2.7.67-2.7,2.45v41.88c0,1.79.67,2.45,2.7,2.45h65c3.6,0,4.95,1.12,4.95,4.91Z"/><path class="cls-1" d="M3493.09,1327.6h11.48c3.15,0,4.72.89,4.72,2.9a15.16,15.16,0,0,1-1.12,3.79l-67.94,141.24c-3.83,8.69-5.85,11.14-8.55,11.14s-4.28-2.23-8.55-11.14L3355,1334.29a14.88,14.88,0,0,1-1.13-3.79c0-2,1.58-2.9,4.73-2.9h12.37c4.73,0,6.53,1.34,9,6.69l52.2,110.94,51.74-110.94C3486.57,1328.94,3488.37,1327.6,3493.09,1327.6Z"/><path class="cls-1" d="M3678.48,1405.35c.67,45.23-35.77,81.54-81.9,80.65a78.43,78.43,0,0,1-80.54-79.76,79.74,79.74,0,0,1,81.44-81.09C3642.93,1324.48,3679.15,1360.35,3678.48,1405.35Zm-23.4.23c0-34.54-25.65-59.26-57.82-59.26s-57.82,25.17-57.82,59.7c-.67,33.42,25.65,59.48,57.37,58.81C3628.53,1465.5,3655.75,1438.77,3655.08,1405.58Z"/><path class="cls-1" d="M3701.43,1483.55h-11.7c-2.93,0-4.5-.89-4.5-2.9a15.16,15.16,0,0,1,1.12-3.79l67.72-141.24c4.5-9.13,5.85-11.14,8.77-11.14,2.7,0,3.83,2,8.33,11.14l68.39,141.24a14.88,14.88,0,0,1,1.13,3.79c0,2-1.58,2.9-4.73,2.9h-12.6c-4.72,0-6.3-1.34-9-6.69l-52-110.94-52,110.94C3708,1482.21,3706.15,1483.55,3701.43,1483.55Z"/><path class="cls-1" d="M3871.06,1449.24c13.72,10.47,27.44,15.82,41.17,15.82,20.69,0,34-9.36,34-23.84,0-13.81-8.55-18.94-35.55-25.84-31.49-7.8-48.59-18.72-48.59-44.78,0-28.29,22.94-45.45,53.09-45.45a81.77,81.77,0,0,1,51.3,17.6c1.57,1.12,2.25,2.23,2.25,3.34,0,.89-.68,2-1.58,3.57l-6.52,9.58c-1.13,1.78-2.25,2.45-3.38,2.45a6.63,6.63,0,0,1-3.82-1.56c-11.93-8.69-24.3-14-38.47-14-17.1,0-29.25,8.91-29.25,23.17,0,14.48,10.12,19.83,34.65,25.84,34.19,8.69,49.27,19.83,49.27,44.56,0,28.07-24.08,46.34-57.82,46.34-20.48,0-38.25-7.35-53.32-19.16-1.58-1.56-2.48-2.67-2.48-3.79a6.48,6.48,0,0,1,1.58-3.79l6.75-9.35c1.12-1.56,2.25-2.45,3.37-2.45C3868.36,1447.46,3869.48,1448.13,3871.06,1449.24Z"/><path class="cls-1" d="M4061.61,1348.77c-2,0-2.7.67-2.7,2.45v127.43c0,3.78-1.35,4.9-4.95,4.9h-12.6c-3.6,0-5-1.12-5-4.9V1351.22c0-1.78-.67-2.45-2.7-2.45h-42.29c-3.6,0-5-1.12-5-4.9V1332.5c0-3.78,1.35-4.9,5-4.9H4103.9c3.6,0,5,1.12,5,4.9v11.37c0,3.78-1.35,4.9-5,4.9Z"/><path class="cls-1" d="M4137,1483.55c-3.6,0-4.95-1.12-4.95-4.9V1332.5c0-3.78,1.35-4.9,4.95-4.9h43c42.74,0,64.11,16,64.11,48.35,0,21.38-11.47,35.2-30.59,41.66l38.69,59.25a8.16,8.16,0,0,1,1.8,4.24c0,1.78-1.57,2.45-4.95,2.45h-13.27c-5.17,0-6.52-.89-9.9-6l-41.39-65a5.28,5.28,0,0,1-1.35-3.12c0-1.11,1.12-1.78,3.37-2,22.72-2.45,34-12.48,34-30.08,0-20.27-14.62-29.18-41.62-29.18h-21.6c-2,0-2.7.67-2.7,2.67v127.88c0,3.78-1.35,4.9-5,4.9Z"/><path class="cls-1" d="M4370.05,1478.65c0,3.78-1.35,4.9-4.95,4.9h-85.26c-3.6,0-4.95-1.12-4.95-4.9V1332.5c0-3.78,1.35-4.9,4.95-4.9h85c3.6,0,4.95,1.12,4.95,4.9v11.37c0,3.78-1.35,4.9-4.95,4.9h-64.8c-2,0-2.7.67-2.7,2.45V1392c0,2,.68,2.67,2.7,2.67h57.15c3.6,0,5,1.11,5,4.9v11.14c0,3.56-1.35,4.9-5,4.9h-57.15c-2,0-2.7.67-2.7,2.45v41.88c0,1.79.68,2.45,2.7,2.45h65c3.6,0,4.95,1.12,4.95,4.91Z"/><path class="cls-1" d="M4426.29,1472.41c0,7.8-6.07,13.14-14.17,13.14s-13.95-5.34-13.95-13.14,6.07-13.37,13.95-13.37C4420.22,1459,4426.29,1464.61,4426.29,1472.41Z"/></g></g></svg>