<?xml version="1.0" encoding="UTF-8"?>
<svg id="Layer_2" data-name="Layer 2" xmlns="http://www.w3.org/2000/svg" xmlns:xlink="http://www.w3.org/1999/xlink" viewBox="0 0 7625.76 1673.45">
  <defs>
    <style>
      .cls-1 {
        font-size: 1000px;
      }

      .cls-1, .cls-2, .cls-3, .cls-4 {
        font-family: Posterama2001-Regular, 'Posterama 2001';
      }

      .cls-1, .cls-2, .cls-4 {
        fill: #231f20;
      }

      .cls-2 {
        font-size: 222.78px;
      }

      .cls-5 {
        fill: url(#linear-gradient-2);
      }

      .cls-6 {
        fill: #ffc20e;
      }

      .cls-7 {
        fill: #f7b237;
      }

      .cls-8 {
        letter-spacing: 0em;
      }

      .cls-8, .cls-9, .cls-10 {
        fill: #6bbe45;
      }

      .cls-11 {
        fill: url(#linear-gradient-15);
      }

      .cls-12 {
        fill: #985e25;
      }

      .cls-13 {
        fill: url(#linear-gradient-14);
      }

      .cls-14 {
        letter-spacing: 0em;
      }

      .cls-14, .cls-15 {
        fill: #985e26;
      }

      .cls-16 {
        fill: url(#linear-gradient-6);
      }

      .cls-17 {
        fill: url(#radial-gradient-5);
      }

      .cls-18 {
        fill: url(#radial-gradient-4);
      }

      .cls-19 {
        fill: url(#linear-gradient-11);
      }

      .cls-20 {
        fill: #2c973e;
      }

      .cls-21 {
        fill: url(#linear-gradient-10);
      }

      .cls-22 {
        fill: url(#radial-gradient);
      }

      .cls-3 {
        font-size: 511.45px;
      }

      .cls-23 {
        fill: url(#linear-gradient-16);
      }

      .cls-4 {
        font-size: 93.13px;
      }

      .cls-24 {
        fill: url(#Foliage);
      }

      .cls-25 {
        letter-spacing: .02em;
      }

      .cls-26 {
        fill: #f1572f;
      }

      .cls-27 {
        fill: url(#linear-gradient-5);
      }

      .cls-28 {
        fill: url(#radial-gradient-2);
      }

      .cls-29 {
        letter-spacing: .05em;
      }

      .cls-10 {
        letter-spacing: -.02em;
      }

      .cls-30, .cls-31 {
        fill: none;
      }

      .cls-32 {
        fill: url(#radial-gradient-3);
      }

      .cls-31 {
        stroke: #231f20;
        stroke-miterlimit: 10;
        stroke-width: 50px;
      }

      .cls-33 {
        fill: url(#linear-gradient-7);
      }

      .cls-34 {
        fill: url(#linear-gradient-9);
      }

      .cls-35 {
        letter-spacing: -.01em;
      }

      .cls-36 {
        fill: url(#linear-gradient-3);
      }

      .cls-37 {
        fill: url(#linear-gradient);
      }

      .cls-38 {
        fill: #b1742a;
      }

      .cls-39 {
        letter-spacing: .02em;
      }

      .cls-40 {
        fill: url(#linear-gradient-4);
      }

      .cls-41 {
        fill: url(#linear-gradient-8);
      }

      .cls-42 {
        fill: url(#linear-gradient-12);
      }

      .cls-43 {
        fill: url(#linear-gradient-13);
      }
    </style>
    <linearGradient id="linear-gradient" x1="-38892.45" y1="-52899.07" x2="-38915.74" y2="-52891.14" gradientTransform="translate(39260.56 -52670.32) scale(1 -1)" gradientUnits="userSpaceOnUse">
      <stop offset=".23" stop-color="#faa61a"/>
      <stop offset=".76" stop-color="#ffc20e"/>
    </linearGradient>
    <radialGradient id="radial-gradient" cx="-38813.92" cy="-52929.51" fx="-38813.92" fy="-52929.51" r="133.44" gradientTransform="translate(39260.56 -52670.32) scale(1 -1)" gradientUnits="userSpaceOnUse">
      <stop offset=".35" stop-color="#58ab40"/>
      <stop offset=".76" stop-color="#80c342"/>
    </radialGradient>
    <linearGradient id="linear-gradient-2" x1="54974.19" y1="-52843.25" x2="54974.19" y2="-52815.15" gradientTransform="translate(55391.87 -52670.32) rotate(-180)" xlink:href="#linear-gradient"/>
    <linearGradient id="linear-gradient-3" x1="55313.34" y1="-52899.07" x2="55290.05" y2="-52891.14" gradientTransform="translate(55391.87 -52670.32) rotate(-180)" xlink:href="#linear-gradient"/>
    <linearGradient id="linear-gradient-4" x1="-39231.59" y1="-52843.25" x2="-39231.59" y2="-52815.15" xlink:href="#linear-gradient"/>
    <radialGradient id="radial-gradient-2" cx="-39260.56" fx="-39260.56" xlink:href="#radial-gradient"/>
    <linearGradient id="linear-gradient-5" x1="54910.19" y1="37026.94" x2="54910.19" y2="37055.05" gradientTransform="translate(55327.87 -36940.69) rotate(-180) scale(1 -1)" xlink:href="#linear-gradient"/>
    <radialGradient id="radial-gradient-3" cy="-52670.32" fy="-52670.32" xlink:href="#radial-gradient"/>
    <linearGradient id="linear-gradient-6" x1="-38892.45" y1="36985.66" x2="-38915.74" y2="36993.6" gradientTransform="translate(39260.56 -36955.23)" xlink:href="#linear-gradient"/>
    <linearGradient id="linear-gradient-7" x1="55133.51" y1="37156.53" x2="55133.51" y2="37184.64" gradientTransform="translate(55327.87 -36940.69) rotate(-180) scale(1 -1)" xlink:href="#linear-gradient"/>
    <linearGradient id="linear-gradient-8" x1="-38944.27" y1="37156.53" x2="-38944.27" y2="37184.64" gradientTransform="translate(39196.56 -36940.69)" xlink:href="#linear-gradient"/>
    <linearGradient id="linear-gradient-9" x1="55090.02" y1="-52769.48" x2="55066.73" y2="-52761.54" gradientTransform="translate(55391.87 -52670.32) rotate(-180)" xlink:href="#linear-gradient"/>
    <linearGradient id="linear-gradient-10" x1="-39115.77" y1="-52769.48" x2="-39139.06" y2="-52761.54" xlink:href="#linear-gradient"/>
    <linearGradient id="linear-gradient-11" x1="-39008.27" y1="-52713.66" x2="-39008.27" y2="-52685.55" xlink:href="#linear-gradient"/>
    <radialGradient id="radial-gradient-4" cx="-39037.24" cy="-52799.91" fx="-39037.24" fy="-52799.91" r="133.44" xlink:href="#radial-gradient"/>
    <linearGradient id="linear-gradient-12" x1="55090.02" y1="37115.25" x2="55066.73" y2="37123.19" gradientTransform="translate(55391.87 -36955.23) rotate(-180) scale(1 -1)" xlink:href="#linear-gradient"/>
    <linearGradient id="linear-gradient-13" x1="-39115.77" y1="37115.25" x2="-39139.06" y2="37123.19" gradientTransform="translate(39260.56 -36955.23)" xlink:href="#linear-gradient"/>
    <linearGradient id="linear-gradient-14" x1="55197.51" y1="-52713.66" x2="55197.51" y2="-52685.55" gradientTransform="translate(55391.87 -52670.32) rotate(-180)" xlink:href="#linear-gradient"/>
    <linearGradient id="linear-gradient-15" x1="-39167.59" y1="37026.94" x2="-39167.59" y2="37055.05" gradientTransform="translate(39196.56 -36940.69)" xlink:href="#linear-gradient"/>
    <radialGradient id="radial-gradient-5" cx="-39260.56" cy="-52670.32" fx="-39260.56" fy="-52670.32" xlink:href="#radial-gradient"/>
    <linearGradient id="linear-gradient-16" x1="55313.34" y1="36985.66" x2="55290.05" y2="36993.6" gradientTransform="translate(55391.87 -36955.23) rotate(-180) scale(1 -1)" xlink:href="#linear-gradient"/>
    <pattern id="Foliage" x="0" y="0" width="446.64" height="259.18" patternTransform="translate(-658.25 -1277.16)" patternUnits="userSpaceOnUse" viewBox="0 0 446.64 259.18">
      <g>
        <rect class="cls-30" x="0" width="446.64" height="259.18"/>
        <g>
          <path class="cls-20" d="M378.84,190.69c5.52,4.58,10.66,12.46,11.44,22.75,1.08-10.23,3.2-18.13,8.21-23.96,0,0-6.33,3.1-8.62,9.15-2.96-5.25-11.04-7.94-11.04-7.94Z"/>
          <path class="cls-20" d="M364.84,139.81c1.22,5.97,6.31,11.18,12.92,13.73-2.71-6.99-1.7-13.8,2.15-19.79-.9,7.77,1.47,13.21,5.79,18.04-1.36-4.83-1.24-9.27,1.08-13.87-.94,8.48,6.17,12.79,15.62,18.44,12.66,7.58,17.28,16.04,19.25,27.23-3.45-6.87-9.9-13.14-27.86-17.29-22.3-5.16-30.39-12.42-28.95-26.49Z"/>
          <path class="cls-37" d="M365.11,232.01c-4.69-4.6-6.91-12.18-7.27-21.72-.47-12.53-5.41-17.66-13.33-18.53,11.8,4.58,4.44,17.12,7.94,25.85-6.44-4.79-4.38-20.68-17.63-21.4,9.78,3.2,2.83,16.68,9.29,24.5-7.81-.11-11.4,6.13-21.54,3.23,4.71,3.64,9.96,5.92,18.85,5.92-6.25,3.86-9,8.63-11.31,15.35,10.13-10.59,24.85-14.66,35-13.19Z"/>
          <path class="cls-22" d="M482.48,266.46c29.44,4.02,46.23,20.79,49.15,36.55-3.92-9.25-12.98-15.22-23.6-18.63,10.62,14.01,7.19,31.87,21.12,41.7-10.37-11.04-7.21-24.46-14.9-36.73,12.26,6.9,14.12,16.67,17.02,27.15,4.38,15.84,11.54,20.09,17.22,22.18-11.7,.45-28.66-4.53-36.78-20.1-8.61-16.51-1.45-34.41-22.48-43.77,9.6,8.06,14.73,19.52,8.69,34.42,2.26-21.92-20.63-25.5-24.31-40.45-.63,11.53,7.18,21.22,14.55,25.9-10.29-3.37-19.21-8.99-23.42-21.82-6.92,21.39,5.31,38.45,12.9,38.45,2.63,0,4.54-1.67,4.54-4.16,0-6.45-11.64-6.45-14.6-18.85,5.32,10.82,25.55,8.87,25.55,20.76,0,9.74-13.64,14.04-22.36,7.98,6.39,8.34,21.26,8.62,25.55-1.42,.66,4.31-1.31,10.76-7.45,13.13-6.99,2.7-13.48-2.48-13.48-2.48,7.64,11.01,20.94,3.67,34.07,3.9,10.87,.19,18.11,5.82,21.29,11.18-2.97-1.49-4.64-1.89-7.63-1.95,6.29,3.88,10.85,12.8,9.05,21.47-1.3-6.25-8.57-10.68-22.36-11.63-15.56-1.08-23.81-3.57-29.1-9.3,11.2,4.96,28.94-1.91,40.99,6.03-7.45-8.54-23.93-6.09-35.71-7.98-20.71-3.32-33.32-38.29-31.71-53.63-5.66,23.42,9.46,36.2,12.79,49.13,3.63,14.13-3.37,23.83-9.95,28.8,10.28-15.4-7.42-24.63-4.61-44.36-5.23,19.19,4.44,24.66,4.44,34.6s-8.58,12.99-10.29,25.55c-1.71-12.55-10.29-15.79-10.29-25.55s9.66-15.41,4.44-34.6c2.8,19.73-14.89,28.96-4.61,44.36-6.58-4.98-13.58-14.67-9.95-28.8,3.32-12.93,18.44-25.71,12.79-49.13,1.62,15.35-11,50.31-31.71,53.63-11.78,1.89-28.26-.56-35.72,7.98,12.05-7.94,29.78-1.08,40.99-6.03-5.29,5.73-13.54,8.23-29.1,9.3-13.79,.96-21.06,5.38-22.36,11.63-1.8-8.67,2.75-17.59,9.05-21.47-2.99,.07-4.66,.46-7.63,1.95,3.19-5.36,10.42-10.99,21.29-11.18,13.13-.23,26.42,7.11,34.07-3.9,0,0-6.5,5.18-13.48,2.48-6.15-2.37-8.12-8.82-7.45-13.13,4.29,10.04,19.16,9.76,25.55,1.42-8.72,6.05-22.36,1.75-22.36-7.98,0-11.89,20.23-9.94,25.55-20.76-2.96,12.41-14.6,12.41-14.6,18.85,0,2.49,1.91,4.16,4.54,4.16,7.58,0,19.82-17.06,12.9-38.45-4.2,12.83-13.13,18.45-23.42,21.82,7.37-4.68,15.18-14.37,14.55-25.9-3.68,14.95-26.56,18.53-24.31,40.45-6.03-14.9-.91-26.37,8.7-34.42-21.03,9.36-13.87,27.26-22.48,43.77-8.12,15.57-25.08,20.55-36.78,20.1,5.67-2.09,12.84-6.33,17.22-22.18,2.9-10.48,4.77-20.25,17.02-27.15-7.69,12.27-4.54,25.69-14.9,36.73,13.92-9.83,10.5-27.68,21.11-41.7-10.62,3.41-19.68,9.38-23.6,18.63,2.91-15.76,19.71-32.53,49.15-36.55-30.33-1.29-36.17,15.55-51.46,16.16-9.68,.38-18.14-8.39-28.03-13.68,12.11,3.07,31.11,11.33,41.16-2.13,0,0-6.19,5.26-18.28,3.73-12.27-1.56-23.46-9.4-54.12-11.36,30.65-1.96,41.84-9.8,54.12-11.36,12.08-1.54,18.28,3.72,18.28,3.72-10.06-13.46-29.05-5.2-41.16-2.13,9.9-5.29,18.35-14.06,28.03-13.68,15.28,.61,21.13,17.45,51.46,16.16-29.44-4.02-46.23-20.79-49.15-36.55,3.92,9.25,12.98,15.22,23.6,18.63-10.62-14.01-7.19-31.87-21.11-41.7,10.37,11.04,7.21,24.46,14.9,36.73-12.26-6.89-14.13-16.67-17.02-27.15-4.38-15.85-11.55-20.09-17.22-22.18,11.7-.45,28.66,4.53,36.78,20.1,8.61,16.51,1.45,34.41,22.48,43.77-9.6-8.06-14.73-19.52-8.7-34.42-2.25,21.92,20.63,25.5,24.31,40.45,.63-11.53-7.18-21.22-14.55-25.9,10.29,3.37,19.22,8.99,23.42,21.82,6.93-21.39-5.31-38.45-12.9-38.45-2.63,0-4.54,1.67-4.54,4.16,0,6.45,11.64,6.45,14.6,18.85-5.32-10.82-25.55-8.87-25.55-20.76,0-9.74,13.64-14.04,22.36-7.99-6.39-8.34-21.26-8.62-25.55,1.42-.66-4.31,1.31-10.76,7.45-13.13,6.98-2.7,13.48,2.48,13.48,2.48-7.64-11.01-20.94-3.67-34.07-3.9-10.87-.19-18.11-5.82-21.29-11.18,2.97,1.48,4.64,1.88,7.63,1.95-6.29-3.88-10.85-12.8-9.05-21.47,1.3,6.25,8.57,10.68,22.36,11.63,15.56,1.08,23.81,3.57,29.1,9.3-11.2-4.96-28.94,1.91-40.99-6.03,7.45,8.54,23.93,6.09,35.72,7.98,20.71,3.32,33.32,38.29,31.71,53.63,5.65-23.42-9.46-36.2-12.79-49.13-3.63-14.13,3.37-23.83,9.95-28.8-10.28,15.4,7.42,24.63,4.61,44.36,5.23-19.19-4.44-24.66-4.44-34.6s8.59-13,10.29-25.55c1.71,12.55,10.29,15.79,10.29,25.55s-9.66,15.41-4.44,34.6c-2.8-19.73,14.89-28.96,4.61-44.36,6.58,4.98,13.58,14.67,9.95,28.8-3.33,12.93-18.44,25.71-12.79,49.13-1.62-15.35,11-50.31,31.71-53.63,11.78-1.89,28.26,.56,35.71-7.98-12.05,7.94-29.79,1.07-40.99,6.03,5.29-5.74,13.54-8.23,29.1-9.3,13.78-.95,21.06-5.38,22.36-11.63,1.8,8.67-2.76,17.59-9.05,21.47,2.99-.07,4.66-.47,7.63-1.95-3.19,5.36-10.42,10.99-21.29,11.18-13.13,.23-26.43-7.11-34.07,3.9,0,0,6.5-5.18,13.48-2.48,6.14,2.37,8.12,8.82,7.45,13.13-4.29-10.04-19.16-9.76-25.55-1.42,8.72-6.05,22.36-1.75,22.36,7.99,0,11.89-20.23,9.94-25.55,20.76,2.95-12.4,14.6-12.4,14.6-18.85,0-2.49-1.91-4.16-4.54-4.16-7.59,0-19.82,17.06-12.9,38.45,4.21-12.83,13.13-18.45,23.42-21.82-7.37,4.68-15.18,14.37-14.55,25.9,3.68-14.95,26.56-18.53,24.31-40.45,6.03,14.9,.91,26.37-8.69,34.42,21.03-9.36,13.87-27.26,22.48-43.77,8.12-15.57,25.08-20.55,36.78-20.1-5.68,2.09-12.84,6.33-17.22,22.18-2.9,10.48-4.77,20.25-17.02,27.15,7.69-12.26,4.54-25.69,14.9-36.73-13.92,9.83-10.5,27.68-21.12,41.7,10.62-3.41,19.68-9.38,23.6-18.63-2.92,15.76-19.71,32.53-49.15,36.55,30.33,1.29,36.17-15.55,51.45-16.16,9.68-.38,18.14,8.39,28.04,13.68-12.11-3.07-31.11-11.33-41.16,2.13,0,0,6.19-5.26,18.28-3.72,12.27,1.56,23.46,9.4,54.12,11.36-30.65,1.96-41.84,9.8-54.12,11.36-12.08,1.53-18.28-3.73-18.28-3.73,10.06,13.46,29.05,5.2,41.16,2.13-9.9,5.29-18.35,14.06-28.04,13.68-15.28-.61-21.13-17.45-51.45-16.16Zm33.36-7.27c4.61,1.24,8.63,3.77,14.49,3.77,7.11,0,11.07-2.75,16.74-3.77-5.67-1.02-9.63-3.77-16.74-3.77-5.86,0-9.87,2.53-14.49,3.77Zm-72.21-90.31c0,5.12,3.02,8.4,3.02,12.12,0-3.73,3.02-7,3.02-12.12,0-4.57-2.25-6.65-3.02-11.43-.77,4.78-3.02,6.87-3.02,11.43Zm-66.18,90.31c-4.61-1.24-8.63-3.77-14.49-3.77-7.11,0-11.07,2.75-16.74,3.77,5.67,1.02,9.63,3.77,16.74,3.77,5.85,0,9.87-2.53,14.49-3.77Zm72.21,90.31c0-5.12-3.02-8.4-3.02-12.12,0,3.72-3.02,7-3.02,12.12,0,4.57,2.25,6.65,3.02,11.43,.77-4.78,3.02-6.87,3.02-11.43Zm42.05-90.31c-9.94,0-24.09-4.98-34.95-3.02,3.45-2.1,4.98-3.67,7.45-6.74-4.41,.43-6.76,.8-10.11,2.31,2.66-6.02,3.19-9.4,3.72-15.44-3.07,3.57-4.64,5.74-6.56,10.65,.71-12.42-4.26-15.25-4.61-31.76-.36,16.51-5.32,19.34-4.61,31.76-1.92-4.91-3.49-7.08-6.56-10.65,.53,6.04,1.06,9.42,3.73,15.44-3.36-1.51-5.71-1.87-10.12-2.31,2.47,3.07,4,4.64,7.45,6.74-10.87-1.97-25.02,3.02-34.95,3.02,9.94,0,24.09,4.98,34.95,3.02-3.45,2.1-4.98,3.67-7.45,6.74,4.41-.43,6.76-.8,10.12-2.31-2.66,6.02-3.2,9.4-3.73,15.44,3.07-3.57,4.64-5.74,6.56-10.65-.71,12.42,4.26,15.25,4.61,31.76,.36-16.51,5.32-19.34,4.61-31.76,1.93,4.91,3.5,7.08,6.56,10.65-.53-6.04-1.06-9.42-3.72-15.44,3.36,1.51,5.71,1.87,10.11,2.31-2.47-3.07-4-4.64-7.45-6.74,10.87,1.96,25.02-3.02,34.95-3.02Z"/>
          <path class="cls-5" d="M391.76,137.92c2.64,13.83,25.37,16.26,30.29,34.06,3.77-19.12,21.29-19.87,21.54-33.11-3.18,7.8-10.84,5.79-15.88,12.12,.85-6.15,4.63-11.89,12.38-15.08-7.67-1.08-15.63,1.83-19.12,9.56-2.56-4.17-2.81-8.45-.67-13.87-4.71,3.63-7.49,9.3-5.65,16.56-7.27-7.27-17.9-3.23-22.88-10.23Z"/>
          <path class="cls-6" d="M464.86,259.19c-4.26-.66-9.39-3.2-14.13-1.22,2.32-1.8,1.14-3.51,2.53-5.2-1.92,1.39-3.51,.5-4.99,2.75,1.54-5.31-.53-8.14-1.63-14.12-1.1,5.98-3.17,8.81-1.63,14.12-1.47-2.24-3.07-1.36-4.98-2.75,1.38,1.68,.21,3.39,2.53,5.2-4.74-1.98-9.87,.56-14.13,1.22,4.26,.67,9.39,3.2,14.13,1.22-2.32,1.8-1.14,3.52-2.53,5.2,1.92-1.39,3.51-.5,4.98-2.74-1.54,5.31,.53,8.14,1.63,14.12,1.1-5.98,3.17-8.81,1.63-14.12,1.48,2.24,3.07,1.36,4.99,2.74-1.38-1.68-.21-3.39-2.53-5.2,4.74,1.98,9.87-.55,14.13-1.22Z"/>
        </g>
        <g>
          <path class="cls-36" d="M81.53,232.01c4.69-4.6,6.91-12.18,7.27-21.72,.47-12.53,5.41-17.66,13.33-18.53-11.8,4.58-4.44,17.12-7.94,25.85,6.44-4.79,4.38-20.68,17.63-21.4-9.78,3.2-2.84,16.68-9.29,24.5,7.81-.11,11.4,6.13,21.54,3.23-4.72,3.64-9.96,5.92-18.85,5.92,6.25,3.86,9,8.63,11.31,15.35-10.13-10.59-24.85-14.66-35-13.19Z"/>
          <path class="cls-20" d="M67.8,190.69c-5.52,4.58-10.66,12.46-11.44,22.75-1.08-10.23-3.2-18.13-8.21-23.96,0,0,6.33,3.1,8.62,9.15,2.96-5.25,11.04-7.94,11.04-7.94Z"/>
          <path class="cls-20" d="M81.8,139.81c-1.22,5.97-6.31,11.18-12.92,13.73,2.71-6.99,1.7-13.8-2.15-19.79,.9,7.77-1.47,13.21-5.79,18.04,1.36-4.83,1.24-9.27-1.08-13.87,.94,8.48-6.17,12.79-15.62,18.44-12.66,7.58-17.28,16.04-19.25,27.23,3.45-6.87,9.9-13.14,27.86-17.29,22.3-5.16,30.39-12.42,28.95-26.49Z"/>
          <path class="cls-40" d="M54.88,137.92c-2.64,13.83-25.37,16.26-30.29,34.06-3.77-19.12-21.29-19.87-21.54-33.11,3.18,7.8,10.84,5.79,15.88,12.12-.85-6.15-4.63-11.89-12.38-15.08,7.67-1.08,15.62,1.83,19.12,9.56,2.56-4.17,2.81-8.45,.67-13.87,4.71,3.63,7.49,9.3,5.65,16.56,7.27-7.27,17.9-3.23,22.88-10.23Z"/>
          <path class="cls-28" d="M35.84,266.46c29.44,4.02,46.23,20.79,49.15,36.55-3.92-9.25-12.98-15.22-23.6-18.63,10.62,14.01,7.19,31.87,21.12,41.7-10.37-11.04-7.21-24.46-14.9-36.73,12.26,6.9,14.12,16.67,17.02,27.15,4.38,15.84,11.54,20.09,17.22,22.18-11.7,.45-28.66-4.53-36.78-20.1-8.61-16.51-1.45-34.41-22.48-43.77,9.6,8.06,14.73,19.52,8.69,34.42,2.26-21.92-20.63-25.5-24.31-40.45-.63,11.53,7.18,21.22,14.55,25.9-10.29-3.37-19.21-8.99-23.42-21.82-6.92,21.39,5.31,38.45,12.9,38.45,2.63,0,4.54-1.67,4.54-4.16,0-6.45-11.64-6.45-14.6-18.85,5.32,10.82,25.55,8.87,25.55,20.76,0,9.74-13.64,14.04-22.36,7.98,6.39,8.34,21.26,8.62,25.55-1.42,.66,4.31-1.31,10.76-7.45,13.13-6.99,2.7-13.48-2.48-13.48-2.48,7.64,11.01,20.94,3.67,34.07,3.9,10.87,.19,18.11,5.82,21.29,11.18-2.97-1.49-4.64-1.89-7.63-1.95,6.29,3.88,10.85,12.8,9.05,21.47-1.3-6.25-8.57-10.68-22.36-11.63-15.56-1.08-23.81-3.57-29.1-9.3,11.2,4.96,28.94-1.91,40.99,6.03-7.45-8.54-23.93-6.09-35.71-7.98-20.71-3.32-33.32-38.29-31.71-53.63-5.66,23.42,9.46,36.2,12.79,49.13,3.63,14.13-3.37,23.83-9.95,28.8,10.28-15.4-7.42-24.63-4.61-44.36-5.23,19.19,4.44,24.66,4.44,34.6S1.71,365.51,0,378.06c-1.7-12.55-10.29-15.79-10.29-25.55s9.66-15.41,4.44-34.6c2.8,19.73-14.89,28.96-4.61,44.36-6.58-4.98-13.58-14.67-9.95-28.8,3.32-12.93,18.44-25.71,12.79-49.13,1.62,15.35-11,50.31-31.71,53.63-11.78,1.89-28.26-.56-35.72,7.98,12.05-7.94,29.78-1.08,40.99-6.03-5.29,5.73-13.54,8.23-29.1,9.3-13.79,.96-21.06,5.38-22.36,11.63-1.8-8.67,2.75-17.59,9.05-21.47-2.99,.07-4.66,.46-7.63,1.95,3.19-5.36,10.42-10.99,21.29-11.18,13.13-.23,26.42,7.11,34.07-3.9,0,0-6.5,5.18-13.48,2.48-6.15-2.37-8.12-8.82-7.45-13.13,4.29,10.04,19.16,9.76,25.55,1.42-8.72,6.05-22.36,1.75-22.36-7.98,0-11.89,20.23-9.94,25.55-20.76-2.96,12.41-14.6,12.41-14.6,18.85,0,2.49,1.91,4.16,4.54,4.16,7.58,0,19.82-17.06,12.9-38.45-4.2,12.83-13.13,18.45-23.42,21.82,7.37-4.68,15.18-14.37,14.55-25.9-3.68,14.95-26.56,18.53-24.31,40.45-6.03-14.9-.91-26.37,8.7-34.42-21.03,9.36-13.87,27.26-22.48,43.77-8.12,15.57-25.08,20.55-36.78,20.1,5.67-2.09,12.84-6.33,17.22-22.18,2.9-10.48,4.77-20.25,17.02-27.15-7.69,12.27-4.54,25.69-14.9,36.73,13.92-9.83,10.5-27.68,21.11-41.7-10.62,3.41-19.68,9.38-23.6,18.63,2.91-15.76,19.71-32.53,49.15-36.55-30.33-1.29-36.17,15.55-51.46,16.16-9.68,.38-18.14-8.39-28.03-13.68,12.11,3.07,31.11,11.33,41.16-2.13,0,0-6.19,5.26-18.28,3.73-12.27-1.56-23.46-9.4-54.12-11.36,30.65-1.96,41.84-9.8,54.12-11.36,12.08-1.54,18.28,3.72,18.28,3.72-10.06-13.46-29.05-5.2-41.16-2.13,9.9-5.29,18.35-14.06,28.03-13.68,15.28,.61,21.13,17.45,51.46,16.16-29.44-4.02-46.23-20.79-49.15-36.55,3.92,9.25,12.98,15.22,23.6,18.63-10.62-14.01-7.19-31.87-21.11-41.7,10.37,11.04,7.21,24.46,14.9,36.73-12.26-6.89-14.13-16.67-17.02-27.15-4.38-15.85-11.55-20.09-17.22-22.18,11.7-.45,28.66,4.53,36.78,20.1,8.61,16.51,1.45,34.41,22.48,43.77-9.6-8.06-14.73-19.52-8.7-34.42-2.25,21.92,20.63,25.5,24.31,40.45,.63-11.53-7.18-21.22-14.55-25.9,10.29,3.37,19.22,8.99,23.42,21.82,6.93-21.39-5.31-38.45-12.9-38.45-2.63,0-4.54,1.67-4.54,4.16,0,6.45,11.64,6.45,14.6,18.85-5.32-10.82-25.55-8.87-25.55-20.76,0-9.74,13.64-14.04,22.36-7.99-6.39-8.34-21.26-8.62-25.55,1.42-.66-4.31,1.31-10.76,7.45-13.13,6.98-2.7,13.48,2.48,13.48,2.48-7.64-11.01-20.94-3.67-34.07-3.9-10.87-.19-18.11-5.82-21.29-11.18,2.97,1.48,4.64,1.88,7.63,1.95-6.29-3.88-10.85-12.8-9.05-21.47,1.3,6.25,8.57,10.68,22.36,11.63,15.56,1.08,23.81,3.57,29.1,9.3-11.2-4.96-28.94,1.91-40.99-6.03,7.45,8.54,23.93,6.09,35.72,7.98,20.71,3.32,33.32,38.29,31.71,53.63,5.65-23.42-9.46-36.2-12.79-49.13-3.63-14.13,3.37-23.83,9.95-28.8-10.28,15.4,7.42,24.63,4.61,44.36,5.23-19.19-4.44-24.66-4.44-34.6S-1.71,152.86,0,140.31c1.71,12.55,10.29,15.79,10.29,25.55s-9.66,15.41-4.44,34.6c-2.8-19.73,14.89-28.96,4.61-44.36,6.58,4.98,13.58,14.67,9.95,28.8-3.33,12.93-18.44,25.71-12.79,49.13-1.62-15.35,11-50.31,31.71-53.63,11.78-1.89,28.26,.56,35.71-7.98-12.05,7.94-29.79,1.07-40.99,6.03,5.29-5.74,13.54-8.23,29.1-9.3,13.78-.95,21.06-5.38,22.36-11.63,1.8,8.67-2.76,17.59-9.05,21.47,2.99-.07,4.66-.47,7.63-1.95-3.19,5.36-10.42,10.99-21.29,11.18-13.13,.23-26.43-7.11-34.07,3.9,0,0,6.5-5.18,13.48-2.48,6.14,2.37,8.12,8.82,7.45,13.13-4.29-10.04-19.16-9.76-25.55-1.42,8.72-6.05,22.36-1.75,22.36,7.99,0,11.89-20.23,9.94-25.55,20.76,2.96-12.4,14.6-12.4,14.6-18.85,0-2.49-1.91-4.16-4.54-4.16-7.59,0-19.82,17.06-12.9,38.45,4.21-12.83,13.13-18.45,23.42-21.82-7.37,4.68-15.18,14.37-14.55,25.9,3.68-14.95,26.56-18.53,24.31-40.45,6.03,14.9,.91,26.37-8.69,34.42,21.03-9.36,13.87-27.26,22.48-43.77,8.12-15.57,25.08-20.55,36.78-20.1-5.68,2.09-12.84,6.33-17.22,22.18-2.9,10.48-4.77,20.25-17.02,27.15,7.69-12.26,4.54-25.69,14.9-36.73-13.92,9.83-10.5,27.68-21.12,41.7,10.62-3.41,19.68-9.38,23.6-18.63-2.92,15.76-19.71,32.53-49.15,36.55,30.33,1.29,36.17-15.55,51.45-16.16,9.68-.38,18.14,8.39,28.04,13.68-12.11-3.07-31.11-11.33-41.16,2.13,0,0,6.19-5.26,18.28-3.72,12.27,1.56,23.46,9.4,54.12,11.36-30.65,1.96-41.84,9.8-54.12,11.36-12.08,1.53-18.28-3.73-18.28-3.73,10.06,13.46,29.05,5.2,41.16,2.13-9.9,5.29-18.35,14.06-28.04,13.68-15.28-.61-21.13-17.45-51.45-16.16Zm33.36-7.27c4.61,1.24,8.63,3.77,14.49,3.77,7.11,0,11.07-2.75,16.74-3.77-5.67-1.02-9.63-3.77-16.74-3.77-5.86,0-9.87,2.53-14.49,3.77ZM-3.02,168.87C-3.02,174,0,177.27,0,181c0-3.73,3.02-7,3.02-12.12,0-4.57-2.25-6.65-3.02-11.43-.77,4.78-3.02,6.87-3.02,11.43Zm-66.18,90.31c-4.61-1.24-8.63-3.77-14.49-3.77-7.11,0-11.07,2.75-16.74,3.77,5.67,1.02,9.63,3.77,16.74,3.77,5.85,0,9.88-2.53,14.49-3.77ZM3.02,349.5C3.02,344.37,0,341.1,0,337.37c0,3.72-3.02,7-3.02,12.12,0,4.57,2.25,6.65,3.02,11.43,.77-4.78,3.02-6.87,3.02-11.43Zm42.05-90.31c-9.94,0-24.09-4.98-34.95-3.02,3.45-2.1,4.98-3.67,7.45-6.74-4.41,.43-6.76,.8-10.11,2.31,2.66-6.02,3.19-9.4,3.72-15.44-3.07,3.57-4.64,5.74-6.56,10.65C5.32,234.52,.35,231.7,0,215.18c-.36,16.51-5.32,19.34-4.61,31.76-1.92-4.91-3.49-7.08-6.56-10.65,.53,6.04,1.06,9.42,3.73,15.44-3.36-1.51-5.71-1.87-10.12-2.31,2.47,3.07,4,4.64,7.45,6.74-10.87-1.97-25.02,3.02-34.95,3.02,9.94,0,24.09,4.98,34.95,3.02-3.45,2.1-4.98,3.67-7.45,6.74,4.41-.43,6.76-.8,10.12-2.31-2.66,6.02-3.2,9.4-3.73,15.44,3.07-3.57,4.64-5.74,6.56-10.65-.71,12.42,4.26,15.25,4.61,31.76,.36-16.51,5.32-19.34,4.61-31.76,1.93,4.91,3.5,7.08,6.56,10.65-.53-6.04-1.06-9.42-3.72-15.44,3.36,1.51,5.71,1.87,10.11,2.31-2.47-3.07-4-4.64-7.45-6.74,10.87,1.96,25.02-3.02,34.95-3.02Z"/>
          <path class="cls-6" d="M18.22,259.19c-4.26-.66-9.39-3.2-14.13-1.22,2.32-1.8,1.14-3.51,2.53-5.2-1.92,1.39-3.51,.5-4.99,2.75,1.54-5.31-.53-8.14-1.63-14.12-1.1,5.98-3.17,8.81-1.63,14.12-1.47-2.24-3.07-1.36-4.98-2.75,1.38,1.68,.2,3.39,2.53,5.2-4.74-1.98-9.87,.56-14.13,1.22,4.26,.67,9.39,3.2,14.13,1.22-2.32,1.8-1.14,3.52-2.53,5.2,1.92-1.39,3.51-.5,4.98-2.74-1.54,5.31,.53,8.14,1.63,14.12,1.1-5.98,3.17-8.81,1.63-14.12,1.48,2.24,3.07,1.36,4.99,2.74-1.38-1.68-.21-3.39-2.53-5.2,4.74,1.98,9.87-.55,14.13-1.22Z"/>
        </g>
        <g>
          <path class="cls-27" d="M391.76,121.26c2.64-13.83,25.37-16.26,30.29-34.06,3.77,19.12,21.29,19.87,21.54,33.12-3.18-7.8-10.84-5.79-15.88-12.12,.85,6.15,4.63,11.89,12.38,15.08-7.67,1.08-15.63-1.83-19.12-9.56-2.56,4.17-2.81,8.45-.67,13.87-4.71-3.63-7.49-9.3-5.65-16.56-7.27,7.27-17.9,3.23-22.88,10.23Z"/>
          <path class="cls-20" d="M378.84,68.5c5.52-4.58,10.66-12.46,11.44-22.75,1.08,10.23,3.2,18.13,8.21,23.96,0,0-6.33-3.1-8.62-9.15-2.96,5.25-11.04,7.94-11.04,7.94Z"/>
          <path class="cls-20" d="M364.84,119.38c1.22-5.97,6.31-11.18,12.92-13.73-2.71,6.99-1.7,13.8,2.15,19.79-.9-7.77,1.47-13.21,5.79-18.04-1.36,4.83-1.24,9.27,1.08,13.87-.94-8.48,6.17-12.79,15.62-18.44,12.66-7.58,17.28-16.04,19.25-27.23-3.45,6.87-9.9,13.14-27.86,17.29-22.3,5.16-30.39,12.42-28.95,26.49Z"/>
          <path class="cls-32" d="M482.48,7.27c29.44,4.02,46.23,20.79,49.15,36.55-3.92-9.25-12.98-15.22-23.6-18.63,10.62,14.01,7.19,31.87,21.12,41.7-10.37-11.04-7.21-24.46-14.9-36.73,12.26,6.9,14.12,16.67,17.02,27.15,4.38,15.84,11.54,20.09,17.22,22.18-11.7,.45-28.66-4.53-36.78-20.1-8.61-16.51-1.45-34.41-22.48-43.77,9.6,8.06,14.73,19.52,8.69,34.42,2.26-21.92-20.63-25.51-24.31-40.45-.63,11.53,7.18,21.22,14.55,25.9-10.29-3.37-19.21-8.99-23.42-21.82-6.92,21.39,5.31,38.46,12.9,38.46,2.63,0,4.54-1.67,4.54-4.16,0-6.45-11.64-6.45-14.6-18.86,5.32,10.82,25.55,8.87,25.55,20.76,0,9.74-13.64,14.04-22.36,7.98,6.39,8.34,21.26,8.62,25.55-1.42,.66,4.31-1.31,10.76-7.45,13.13-6.99,2.7-13.48-2.48-13.48-2.48,7.64,11.01,20.94,3.67,34.07,3.9,10.87,.19,18.11,5.82,21.29,11.18-2.97-1.49-4.64-1.89-7.63-1.95,6.29,3.88,10.85,12.79,9.05,21.47-1.3-6.25-8.57-10.68-22.36-11.63-15.56-1.08-23.81-3.57-29.1-9.3,11.2,4.96,28.94-1.91,40.99,6.03-7.45-8.54-23.93-6.09-35.71-7.98-20.71-3.32-33.32-38.29-31.71-53.63-5.66,23.42,9.46,36.2,12.79,49.13,3.63,14.13-3.37,23.83-9.95,28.8,10.28-15.4-7.42-24.63-4.61-44.36-5.23,19.19,4.44,24.66,4.44,34.6s-8.58,12.99-10.29,25.55c-1.71-12.55-10.29-15.79-10.29-25.55s9.66-15.41,4.44-34.6c2.8,19.73-14.89,28.96-4.61,44.36-6.58-4.98-13.58-14.67-9.95-28.8,3.32-12.93,18.44-25.71,12.79-49.13,1.62,15.35-11,50.31-31.71,53.63-11.78,1.89-28.26-.56-35.72,7.98,12.05-7.94,29.78-1.08,40.99-6.03-5.29,5.73-13.54,8.23-29.1,9.3-13.79,.96-21.06,5.38-22.36,11.63-1.8-8.67,2.75-17.59,9.05-21.47-2.99,.06-4.66,.46-7.63,1.95,3.19-5.36,10.42-10.99,21.29-11.18,13.13-.23,26.42,7.11,34.07-3.9,0,0-6.5,5.18-13.48,2.48-6.15-2.37-8.12-8.82-7.45-13.13,4.29,10.04,19.16,9.76,25.55,1.42-8.72,6.05-22.36,1.75-22.36-7.98,0-11.89,20.23-9.94,25.55-20.76-2.96,12.41-14.6,12.41-14.6,18.86,0,2.49,1.91,4.16,4.54,4.16,7.58,0,19.82-17.06,12.9-38.46-4.2,12.83-13.13,18.45-23.42,21.82,7.37-4.68,15.18-14.37,14.55-25.9-3.68,14.95-26.56,18.53-24.31,40.45-6.03-14.9-.91-26.37,8.7-34.42-21.03,9.37-13.87,27.26-22.48,43.77-8.12,15.57-25.08,20.55-36.78,20.1,5.67-2.09,12.84-6.33,17.22-22.18,2.9-10.48,4.77-20.25,17.02-27.15-7.69,12.27-4.54,25.69-14.9,36.73,13.92-9.83,10.5-27.68,21.11-41.7-10.62,3.41-19.68,9.38-23.6,18.63,2.91-15.76,19.71-32.53,49.15-36.55-30.33-1.29-36.17,15.55-51.46,16.16-9.68,.38-18.14-8.39-28.03-13.68,12.11,3.07,31.11,11.33,41.16-2.13,0,0-6.19,5.26-18.28,3.73-12.27-1.56-23.46-9.4-54.12-11.36,30.65-1.96,41.84-9.8,54.12-11.36,12.08-1.54,18.28,3.72,18.28,3.72-10.06-13.46-29.05-5.2-41.16-2.13,9.9-5.29,18.35-14.06,28.03-13.68,15.28,.61,21.13,17.45,51.46,16.16-29.44-4.02-46.23-20.79-49.15-36.55,3.92,9.25,12.98,15.22,23.6,18.63-10.62-14.01-7.19-31.87-21.11-41.7,10.37,11.04,7.21,24.46,14.9,36.73-12.26-6.89-14.13-16.67-17.02-27.14-4.38-15.85-11.55-20.09-17.22-22.18,11.7-.45,28.66,4.53,36.78,20.1,8.61,16.51,1.45,34.41,22.48,43.77-9.6-8.05-14.73-19.52-8.7-34.42-2.25,21.92,20.63,25.5,24.31,40.45,.63-11.53-7.18-21.22-14.55-25.9,10.29,3.37,19.22,8.99,23.42,21.82,6.93-21.39-5.31-38.46-12.9-38.46-2.63,0-4.54,1.67-4.54,4.16,0,6.45,11.64,6.45,14.6,18.85-5.32-10.82-25.55-8.87-25.55-20.76,0-9.74,13.64-14.04,22.36-7.98-6.39-8.34-21.26-8.62-25.55,1.42-.66-4.31,1.31-10.76,7.45-13.13,6.98-2.7,13.48,2.48,13.48,2.48-7.64-11.01-20.94-3.67-34.07-3.9-10.87-.19-18.11-5.82-21.29-11.18,2.97,1.48,4.64,1.88,7.63,1.95-6.29-3.88-10.85-12.8-9.05-21.47,1.3,6.25,8.57,10.68,22.36,11.63,15.56,1.08,23.81,3.57,29.1,9.3-11.2-4.96-28.94,1.91-40.99-6.03,7.45,8.54,23.93,6.09,35.72,7.98,20.71,3.32,33.32,38.29,31.71,53.63,5.65-23.42-9.46-36.2-12.79-49.13-3.63-14.13,3.37-23.83,9.95-28.8-10.28,15.4,7.42,24.63,4.61,44.36,5.23-19.19-4.44-24.66-4.44-34.6s8.59-12.99,10.29-25.55c1.71,12.55,10.29,15.79,10.29,25.55s-9.66,15.41-4.44,34.6c-2.8-19.73,14.89-28.96,4.61-44.36,6.58,4.97,13.58,14.67,9.95,28.8-3.33,12.93-18.44,25.71-12.79,49.13-1.62-15.35,11-50.31,31.71-53.63,11.78-1.89,28.26,.56,35.71-7.98-12.05,7.94-29.79,1.07-40.99,6.03,5.29-5.74,13.54-8.23,29.1-9.3,13.78-.96,21.06-5.38,22.36-11.63,1.8,8.67-2.76,17.59-9.05,21.47,2.99-.07,4.66-.47,7.63-1.95-3.19,5.36-10.42,10.98-21.29,11.18-13.13,.23-26.43-7.11-34.07,3.9,0,0,6.5-5.18,13.48-2.48,6.14,2.37,8.12,8.82,7.45,13.13-4.29-10.04-19.16-9.76-25.55-1.42,8.72-6.05,22.36-1.75,22.36,7.98,0,11.89-20.23,9.94-25.55,20.76,2.95-12.4,14.6-12.4,14.6-18.85,0-2.49-1.91-4.16-4.54-4.16-7.59,0-19.82,17.06-12.9,38.46,4.21-12.84,13.13-18.45,23.42-21.82-7.37,4.68-15.18,14.37-14.55,25.9,3.68-14.95,26.56-18.53,24.31-40.45,6.03,14.9,.91,26.37-8.69,34.42,21.03-9.36,13.87-27.26,22.48-43.77,8.12-15.57,25.08-20.55,36.78-20.1-5.68,2.09-12.84,6.33-17.22,22.18-2.9,10.48-4.77,20.25-17.02,27.14,7.69-12.26,4.54-25.69,14.9-36.73-13.92,9.83-10.5,27.68-21.12,41.7,10.62-3.41,19.68-9.38,23.6-18.63-2.92,15.76-19.71,32.53-49.15,36.55,30.33,1.29,36.17-15.55,51.45-16.16,9.68-.38,18.14,8.39,28.04,13.68-12.11-3.07-31.11-11.33-41.16,2.13,0,0,6.19-5.26,18.28-3.72,12.27,1.56,23.46,9.4,54.12,11.36-30.65,1.96-41.84,9.8-54.12,11.36-12.08,1.53-18.28-3.73-18.28-3.73,10.06,13.46,29.05,5.2,41.16,2.13-9.9,5.29-18.35,14.06-28.04,13.68-15.28-.61-21.13-17.45-51.45-16.16Zm33.36-7.27c4.61,1.24,8.63,3.77,14.49,3.77,7.11,0,11.07-2.75,16.74-3.77-5.67-1.02-9.63-3.77-16.74-3.77-5.86,0-9.87,2.53-14.49,3.77Zm-72.21-90.31c0,5.12,3.02,8.4,3.02,12.12,0-3.73,3.02-7,3.02-12.12,0-4.57-2.25-6.65-3.02-11.44-.77,4.78-3.02,6.87-3.02,11.44ZM377.44,0c-4.61-1.24-8.63-3.77-14.49-3.77-7.11,0-11.07,2.75-16.74,3.77,5.67,1.02,9.63,3.77,16.74,3.77,5.85,0,9.87-2.53,14.49-3.77Zm72.21,90.31c0-5.12-3.02-8.4-3.02-12.12,0,3.72-3.02,7-3.02,12.12,0,4.57,2.25,6.65,3.02,11.43,.77-4.78,3.02-6.87,3.02-11.43ZM491.71,0c-9.94,0-24.09-4.98-34.95-3.02,3.45-2.1,4.98-3.67,7.45-6.74-4.41,.43-6.76,.8-10.11,2.31,2.66-6.02,3.19-9.4,3.72-15.44-3.07,3.57-4.64,5.74-6.56,10.65,.71-12.42-4.26-15.25-4.61-31.76-.36,16.51-5.32,19.34-4.61,31.76-1.92-4.91-3.49-7.08-6.56-10.65,.53,6.04,1.06,9.42,3.73,15.44-3.36-1.51-5.71-1.87-10.12-2.31,2.47,3.07,4,4.64,7.45,6.74-10.87-1.97-25.02,3.02-34.95,3.02,9.94,0,24.09,4.98,34.95,3.02-3.45,2.1-4.98,3.67-7.45,6.74,4.41-.43,6.76-.79,10.12-2.3-2.66,6.02-3.2,9.4-3.73,15.44,3.07-3.56,4.64-5.74,6.56-10.65-.71,12.42,4.26,15.25,4.61,31.76,.36-16.51,5.32-19.34,4.61-31.76,1.93,4.9,3.5,7.08,6.56,10.65-.53-6.04-1.06-9.42-3.72-15.44,3.36,1.51,5.71,1.87,10.11,2.3-2.47-3.07-4-4.64-7.45-6.74,10.87,1.96,25.02-3.02,34.95-3.02Z"/>
          <path class="cls-16" d="M365.11,27.17c-4.69,4.6-6.91,12.19-7.27,21.72-.47,12.53-5.41,17.66-13.33,18.53,11.8-4.58,4.44-17.11,7.94-25.85-6.44,4.79-4.38,20.68-17.63,21.4,9.78-3.2,2.83-16.68,9.29-24.5-7.81,.11-11.4-6.12-21.54-3.23,4.71-3.63,9.96-5.92,18.85-5.92-6.25-3.86-9-8.62-11.31-15.35,10.13,10.59,24.85,14.67,35,13.19Z"/>
          <path class="cls-6" d="M464.86,0c-4.26-.66-9.39-3.2-14.13-1.22,2.32-1.8,1.14-3.52,2.53-5.2-1.92,1.39-3.51,.5-4.99,2.74,1.54-5.31-.53-8.14-1.63-14.12-1.1,5.97-3.17,8.81-1.63,14.12-1.47-2.24-3.07-1.36-4.98-2.74,1.38,1.68,.21,3.39,2.53,5.2-4.74-1.98-9.87,.55-14.13,1.22,4.26,.67,9.39,3.2,14.13,1.22-2.32,1.8-1.14,3.52-2.53,5.2,1.92-1.39,3.51-.5,4.98-2.74-1.54,5.31,.53,8.14,1.63,14.12,1.1-5.98,3.17-8.81,1.63-14.12,1.48,2.24,3.07,1.36,4.99,2.74-1.38-1.68-.21-3.39-2.53-5.2,4.74,1.98,9.87-.55,14.13-1.22Z"/>
        </g>
        <g>
          <path class="cls-33" d="M168.44,250.86c2.64-13.83,25.37-16.26,30.29-34.06,3.77,19.12,21.29,19.87,21.54,33.12-3.18-7.8-10.84-5.79-15.88-12.12,.85,6.15,4.63,11.89,12.38,15.08-7.67,1.08-15.63-1.83-19.12-9.56-2.56,4.17-2.81,8.45-.67,13.87-4.71-3.63-7.49-9.3-5.65-16.56-7.27,7.27-17.9,3.23-22.88,10.23Z"/>
          <path class="cls-41" d="M278.2,250.86c-2.64-13.83-25.37-16.26-30.29-34.06-3.77,19.12-21.29,19.87-21.54,33.12,3.18-7.8,10.84-5.79,15.88-12.12-.85,6.15-4.63,11.89-12.38,15.08,7.67,1.08,15.62-1.83,19.12-9.56,2.56,4.17,2.81,8.45,.67,13.87,4.71-3.63,7.49-9.3,5.65-16.56,7.27,7.27,17.9,3.23,22.88,10.23Z"/>
          <path class="cls-34" d="M304.85,102.42c4.69-4.6,6.91-12.18,7.27-21.72,.47-12.53,5.41-17.66,13.33-18.53-11.8,4.58-4.44,17.12-7.94,25.85,6.44-4.79,4.38-20.68,17.63-21.4-9.78,3.2-2.84,16.68-9.29,24.5,7.81-.11,11.4,6.13,21.54,3.23-4.72,3.64-9.96,5.92-18.85,5.92,6.25,3.86,9,8.63,11.31,15.35-10.13-10.59-24.85-14.66-35-13.19Z"/>
          <path class="cls-20" d="M155.52,61.1c5.52,4.58,10.66,12.46,11.44,22.75,1.08-10.23,3.2-18.13,8.21-23.96,0,0-6.33,3.1-8.62,9.15-2.96-5.25-11.04-7.94-11.04-7.94Z"/>
          <path class="cls-20" d="M141.52,10.21c1.22,5.97,6.31,11.18,12.92,13.73-2.71-6.99-1.7-13.8,2.15-19.79-.9,7.77,1.47,13.21,5.79,18.04-1.36-4.83-1.24-9.27,1.08-13.87-.94,8.48,6.17,12.79,15.62,18.44,12.66,7.58,17.28,16.04,19.25,27.23-3.45-6.87-9.9-13.14-27.86-17.29-22.3-5.16-30.39-12.42-28.95-26.49Z"/>
          <path class="cls-21" d="M141.79,102.42c-4.69-4.6-6.91-12.18-7.27-21.72-.47-12.53-5.41-17.66-13.33-18.53,11.8,4.58,4.44,17.12,7.94,25.85-6.44-4.79-4.38-20.68-17.63-21.4,9.78,3.2,2.83,16.68,9.29,24.5-7.81-.11-11.4,6.13-21.54,3.23,4.71,3.64,9.96,5.92,18.85,5.92-6.25,3.86-9,8.63-11.31,15.35,10.13-10.59,24.85-14.66,35-13.19Z"/>
          <path class="cls-20" d="M291.12,61.1c-5.52,4.58-10.66,12.46-11.44,22.75-1.08-10.23-3.2-18.13-8.21-23.96,0,0,6.33,3.1,8.62,9.15,2.96-5.25,11.04-7.94,11.04-7.94Z"/>
          <path class="cls-20" d="M305.12,10.21c-1.22,5.97-6.31,11.18-12.92,13.73,2.71-6.99,1.7-13.8-2.15-19.79,.9,7.77-1.47,13.21-5.79,18.04,1.36-4.83,1.24-9.27-1.08-13.87,.94,8.48-6.17,12.79-15.62,18.44-12.66,7.58-17.28,16.04-19.25,27.23,3.45-6.87,9.9-13.14,27.86-17.29,22.3-5.16,30.39-12.42,28.95-26.49Z"/>
          <path class="cls-19" d="M278.2,8.33c-2.64,13.83-25.37,16.26-30.29,34.06-3.77-19.12-21.29-19.87-21.54-33.11,3.18,7.8,10.84,5.79,15.88,12.12-.85-6.15-4.63-11.89-12.38-15.08,7.67-1.08,15.62,1.83,19.12,9.56,2.56-4.17,2.81-8.45,.67-13.87,4.71,3.63,7.49,9.3,5.65,16.56,7.27-7.27,17.9-3.23,22.88-10.23Z"/>
          <path class="cls-20" d="M155.52,198.09c5.52-4.58,10.66-12.46,11.44-22.75,1.08,10.23,3.2,18.14,8.21,23.96,0,0-6.33-3.1-8.62-9.15-2.96,5.25-11.04,7.94-11.04,7.94Z"/>
          <path class="cls-20" d="M141.52,248.97c1.22-5.97,6.31-11.18,12.92-13.73-2.71,6.99-1.7,13.8,2.15,19.79-.9-7.77,1.47-13.21,5.79-18.04-1.36,4.83-1.24,9.27,1.08,13.87-.94-8.48,6.17-12.79,15.62-18.44,12.66-7.58,17.28-16.04,19.25-27.23-3.45,6.87-9.9,13.14-27.86,17.29-22.3,5.16-30.39,12.42-28.95,26.49Z"/>
          <path class="cls-18" d="M259.16,136.87c29.44,4.02,46.23,20.79,49.15,36.55-3.92-9.25-12.98-15.22-23.6-18.63,10.62,14.01,7.19,31.87,21.12,41.7-10.37-11.04-7.21-24.46-14.9-36.73,12.26,6.9,14.12,16.67,17.02,27.15,4.38,15.84,11.54,20.09,17.22,22.18-11.7,.45-28.66-4.53-36.78-20.1-8.61-16.51-1.45-34.41-22.48-43.77,9.6,8.06,14.73,19.52,8.69,34.42,2.26-21.92-20.63-25.5-24.31-40.45-.63,11.53,7.18,21.22,14.55,25.9-10.29-3.37-19.21-8.99-23.42-21.82-6.92,21.39,5.31,38.46,12.9,38.46,2.63,0,4.54-1.67,4.54-4.16,0-6.45-11.64-6.45-14.6-18.85,5.32,10.82,25.55,8.87,25.55,20.76,0,9.74-13.64,14.04-22.36,7.98,6.39,8.34,21.26,8.62,25.55-1.42,.66,4.31-1.31,10.76-7.45,13.13-6.99,2.7-13.48-2.48-13.48-2.48,7.64,11.01,20.94,3.67,34.07,3.9,10.87,.19,18.11,5.82,21.29,11.18-2.97-1.49-4.64-1.89-7.63-1.95,6.29,3.88,10.85,12.8,9.05,21.47-1.3-6.25-8.57-10.68-22.36-11.63-15.56-1.08-23.81-3.57-29.1-9.3,11.2,4.96,28.94-1.91,40.99,6.03-7.45-8.54-23.93-6.09-35.71-7.98-20.71-3.32-33.32-38.29-31.71-53.63-5.66,23.42,9.46,36.2,12.79,49.13,3.63,14.13-3.37,23.83-9.95,28.8,10.28-15.4-7.42-24.63-4.61-44.36-5.23,19.19,4.44,24.66,4.44,34.6s-8.58,12.99-10.29,25.55c-1.71-12.55-10.29-15.79-10.29-25.55s9.66-15.41,4.44-34.6c2.8,19.73-14.89,28.96-4.61,44.36-6.58-4.98-13.58-14.67-9.95-28.8,3.32-12.93,18.44-25.71,12.79-49.13,1.62,15.35-11,50.31-31.71,53.63-11.78,1.89-28.26-.56-35.72,7.98,12.05-7.94,29.78-1.08,40.99-6.03-5.29,5.73-13.54,8.23-29.1,9.3-13.79,.95-21.06,5.38-22.36,11.63-1.8-8.67,2.75-17.59,9.05-21.47-2.99,.07-4.66,.46-7.63,1.95,3.19-5.36,10.42-10.99,21.29-11.18,13.13-.23,26.42,7.11,34.07-3.9,0,0-6.5,5.18-13.48,2.48-6.15-2.37-8.12-8.82-7.45-13.13,4.29,10.04,19.16,9.76,25.55,1.42-8.72,6.05-22.36,1.75-22.36-7.98,0-11.89,20.23-9.94,25.55-20.76-2.96,12.41-14.6,12.41-14.6,18.85,0,2.49,1.91,4.16,4.54,4.16,7.58,0,19.82-17.06,12.9-38.46-4.2,12.83-13.13,18.45-23.42,21.82,7.37-4.68,15.18-14.37,14.55-25.9-3.68,14.95-26.56,18.53-24.31,40.45-6.03-14.9-.91-26.37,8.7-34.42-21.03,9.36-13.87,27.26-22.48,43.77-8.12,15.57-25.08,20.55-36.78,20.1,5.67-2.09,12.84-6.33,17.22-22.18,2.9-10.48,4.77-20.25,17.02-27.15-7.69,12.27-4.54,25.69-14.9,36.73,13.92-9.83,10.5-27.68,21.11-41.7-10.62,3.41-19.68,9.38-23.6,18.63,2.91-15.76,19.71-32.53,49.15-36.55-30.33-1.29-36.17,15.55-51.46,16.16-9.68,.38-18.14-8.39-28.03-13.68,12.11,3.07,31.11,11.33,41.16-2.13,0,0-6.19,5.26-18.28,3.73-12.27-1.56-23.46-9.4-54.12-11.36,30.65-1.96,41.84-9.8,54.12-11.36,12.08-1.54,18.28,3.72,18.28,3.72-10.06-13.46-29.05-5.2-41.16-2.13,9.9-5.29,18.35-14.06,28.03-13.68,15.28,.61,21.13,17.45,51.46,16.16-29.44-4.02-46.23-20.79-49.15-36.55,3.92,9.25,12.98,15.22,23.6,18.63-10.62-14.01-7.19-31.87-21.11-41.7,10.37,11.04,7.21,24.46,14.9,36.73-12.26-6.89-14.13-16.67-17.02-27.15-4.38-15.85-11.55-20.09-17.22-22.18,11.7-.45,28.66,4.53,36.78,20.1,8.61,16.51,1.45,34.41,22.48,43.77-9.6-8.06-14.73-19.52-8.7-34.42-2.25,21.92,20.63,25.5,24.31,40.45,.63-11.53-7.18-21.22-14.55-25.9,10.29,3.37,19.22,8.99,23.42,21.82,6.93-21.39-5.31-38.46-12.9-38.46-2.63,0-4.54,1.67-4.54,4.16,0,6.45,11.64,6.45,14.6,18.85-5.32-10.82-25.55-8.87-25.55-20.76,0-9.74,13.64-14.04,22.36-7.99-6.39-8.34-21.26-8.62-25.55,1.42-.66-4.31,1.31-10.76,7.45-13.13,6.98-2.7,13.48,2.48,13.48,2.48-7.64-11.01-20.94-3.67-34.07-3.9-10.87-.19-18.11-5.82-21.29-11.18,2.97,1.48,4.64,1.88,7.63,1.95-6.29-3.88-10.85-12.8-9.05-21.47,1.3,6.25,8.57,10.68,22.36,11.63,15.56,1.08,23.81,3.57,29.1,9.3-11.2-4.96-28.94,1.91-40.99-6.03,7.45,8.54,23.93,6.09,35.72,7.98,20.71,3.32,33.32,38.29,31.71,53.63,5.65-23.42-9.46-36.2-12.79-49.13-3.63-14.13,3.37-23.83,9.95-28.8-10.28,15.4,7.42,24.63,4.61,44.36,5.23-19.19-4.44-24.66-4.44-34.6s8.59-13,10.29-25.55c1.71,12.55,10.29,15.79,10.29,25.55s-9.66,15.41-4.44,34.6c-2.8-19.73,14.89-28.96,4.61-44.36,6.58,4.98,13.58,14.67,9.95,28.8-3.33,12.93-18.44,25.71-12.79,49.13-1.62-15.35,11-50.31,31.71-53.63,11.78-1.89,28.26,.56,35.71-7.98-12.05,7.94-29.79,1.07-40.99,6.03,5.29-5.74,13.54-8.23,29.1-9.3,13.78-.96,21.06-5.38,22.36-11.63,1.8,8.67-2.76,17.59-9.05,21.47,2.99-.07,4.66-.47,7.63-1.95-3.19,5.36-10.42,10.99-21.29,11.18-13.13,.23-26.43-7.11-34.07,3.9,0,0,6.5-5.18,13.48-2.48,6.14,2.37,8.12,8.82,7.45,13.13-4.29-10.04-19.16-9.76-25.55-1.42,8.72-6.05,22.36-1.75,22.36,7.99,0,11.89-20.23,9.94-25.55,20.76,2.95-12.4,14.6-12.4,14.6-18.85,0-2.49-1.91-4.16-4.54-4.16-7.59,0-19.82,17.06-12.9,38.46,4.21-12.83,13.13-18.45,23.42-21.82-7.37,4.68-15.18,14.37-14.55,25.9,3.68-14.95,26.56-18.53,24.31-40.45,6.03,14.9,.91,26.37-8.69,34.42,21.03-9.36,13.87-27.26,22.48-43.77,8.12-15.57,25.08-20.55,36.78-20.1-5.68,2.09-12.84,6.33-17.22,22.18-2.9,10.48-4.77,20.25-17.02,27.15,7.69-12.26,4.54-25.69,14.9-36.73-13.92,9.83-10.5,27.68-21.12,41.7,10.62-3.41,19.68-9.38,23.6-18.63-2.92,15.76-19.71,32.53-49.15,36.55,30.33,1.29,36.17-15.55,51.45-16.16,9.68-.38,18.14,8.39,28.04,13.68-12.11-3.07-31.11-11.33-41.16,2.13,0,0,6.19-5.26,18.28-3.72,12.27,1.56,23.46,9.4,54.12,11.36-30.65,1.96-41.84,9.8-54.12,11.36-12.08,1.53-18.28-3.73-18.28-3.73,10.06,13.46,29.05,5.2,41.16,2.13-9.9,5.29-18.35,14.06-28.04,13.68-15.28-.61-21.13-17.45-51.45-16.16Zm33.36-7.27c4.61,1.24,8.63,3.77,14.49,3.77,7.11,0,11.07-2.75,16.74-3.77-5.67-1.02-9.63-3.77-16.74-3.77-5.86,0-9.87,2.53-14.49,3.77ZM220.3,39.28c0,5.12,3.02,8.4,3.02,12.12,0-3.73,3.02-7,3.02-12.12,0-4.57-2.25-6.65-3.02-11.43-.77,4.78-3.02,6.87-3.02,11.43Zm-66.18,90.31c-4.61-1.24-8.63-3.77-14.49-3.77-7.11,0-11.07,2.75-16.74,3.77,5.67,1.02,9.63,3.77,16.74,3.77,5.85,0,9.87-2.53,14.49-3.77Zm72.21,90.31c0-5.12-3.02-8.4-3.02-12.12,0,3.72-3.02,7-3.02,12.12,0,4.57,2.25,6.65,3.02,11.43,.77-4.78,3.02-6.87,3.02-11.43Zm42.05-90.31c-9.94,0-24.09-4.98-34.95-3.02,3.45-2.1,4.98-3.67,7.45-6.74-4.41,.43-6.76,.8-10.11,2.31,2.66-6.02,3.19-9.4,3.72-15.44-3.07,3.57-4.64,5.74-6.56,10.65,.71-12.42-4.26-15.25-4.61-31.76-.36,16.51-5.32,19.34-4.61,31.76-1.92-4.91-3.49-7.08-6.56-10.65,.53,6.04,1.06,9.42,3.73,15.44-3.36-1.51-5.71-1.87-10.12-2.31,2.47,3.07,4,4.64,7.45,6.74-10.87-1.97-25.02,3.02-34.95,3.02,9.94,0,24.09,4.98,34.95,3.02-3.45,2.1-4.98,3.67-7.45,6.74,4.41-.43,6.76-.8,10.12-2.31-2.66,6.02-3.2,9.4-3.73,15.44,3.07-3.57,4.64-5.74,6.56-10.65-.71,12.42,4.26,15.25,4.61,31.76,.36-16.51,5.32-19.34,4.61-31.76,1.93,4.91,3.5,7.08,6.56,10.65-.53-6.04-1.06-9.42-3.72-15.44,3.36,1.51,5.71,1.87,10.11,2.31-2.47-3.07-4-4.64-7.45-6.74,10.87,1.96,25.02-3.02,34.95-3.02Z"/>
          <path class="cls-20" d="M291.12,198.09c-5.52-4.58-10.66-12.46-11.44-22.75-1.08,10.23-3.2,18.14-8.21,23.96,0,0,6.33-3.1,8.62-9.15,2.96,5.25,11.04,7.94,11.04,7.94Z"/>
          <path class="cls-20" d="M305.12,248.97c-1.22-5.97-6.31-11.18-12.92-13.73,2.71,6.99,1.7,13.8-2.15,19.79,.9-7.77-1.47-13.21-5.79-18.04,1.36,4.83,1.24,9.27-1.08,13.87,.94-8.48-6.17-12.79-15.62-18.44-12.66-7.58-17.28-16.04-19.25-27.23,3.45,6.87,9.9,13.14,27.86,17.29,22.3,5.16,30.39,12.42,28.95,26.49Z"/>
          <path class="cls-42" d="M304.85,156.76c4.69,4.6,6.91,12.19,7.27,21.72,.47,12.53,5.41,17.66,13.33,18.53-11.8-4.58-4.44-17.11-7.94-25.85,6.44,4.79,4.38,20.68,17.63,21.4-9.78-3.2-2.84-16.67-9.29-24.5,7.81,.11,11.4-6.12,21.54-3.23-4.72-3.63-9.96-5.92-18.85-5.92,6.25-3.86,9-8.62,11.31-15.35-10.13,10.59-24.85,14.67-35,13.19Z"/>
          <path class="cls-43" d="M141.79,156.76c-4.69,4.6-6.91,12.19-7.27,21.72-.47,12.53-5.41,17.66-13.33,18.53,11.8-4.58,4.44-17.11,7.94-25.85-6.44,4.79-4.38,20.68-17.63,21.4,9.78-3.2,2.83-16.67,9.29-24.5-7.81,.11-11.4-6.12-21.54-3.23,4.71-3.63,9.96-5.92,18.85-5.92-6.25-3.86-9-8.62-11.31-15.35,10.13,10.59,24.85,14.67,35,13.19Z"/>
          <path class="cls-13" d="M168.44,8.33c2.64,13.83,25.37,16.26,30.29,34.06,3.77-19.12,21.29-19.87,21.54-33.11-3.18,7.8-10.84,5.79-15.88,12.12,.85-6.15,4.63-11.89,12.38-15.08-7.67-1.08-15.63,1.83-19.12,9.56-2.56-4.17-2.81-8.45-.67-13.87-4.71,3.63-7.49,9.3-5.65,16.56-7.27-7.27-17.9-3.23-22.88-10.23Z"/>
          <path class="cls-6" d="M241.54,129.59c-4.26-.66-9.39-3.2-14.13-1.22,2.32-1.8,1.14-3.51,2.53-5.2-1.92,1.39-3.51,.5-4.99,2.75,1.54-5.31-.53-8.14-1.63-14.12-1.1,5.98-3.17,8.81-1.63,14.12-1.47-2.24-3.07-1.36-4.98-2.75,1.38,1.68,.2,3.39,2.53,5.2-4.74-1.98-9.87,.56-14.13,1.22,4.26,.67,9.39,3.2,14.13,1.22-2.32,1.8-1.14,3.52-2.53,5.2,1.92-1.39,3.51-.5,4.98-2.74-1.54,5.31,.53,8.14,1.63,14.12,1.1-5.98,3.17-8.81,1.63-14.12,1.48,2.24,3.07,1.36,4.99,2.74-1.38-1.68-.21-3.39-2.53-5.2,4.74,1.98,9.87-.55,14.13-1.22Z"/>
        </g>
        <g>
          <path class="cls-11" d="M54.88,121.26c-2.64-13.83-25.37-16.26-30.29-34.06-3.77,19.12-21.29,19.87-21.54,33.12,3.18-7.8,10.84-5.79,15.88-12.12-.85,6.15-4.63,11.89-12.38,15.08,7.67,1.08,15.62-1.83,19.12-9.56,2.56,4.17,2.81,8.45,.67,13.87,4.71-3.63,7.49-9.3,5.65-16.56,7.27,7.27,17.9,3.23,22.88,10.23Z"/>
          <path class="cls-17" d="M35.84,7.27c29.44,4.02,46.23,20.79,49.15,36.55-3.92-9.25-12.98-15.22-23.6-18.63,10.62,14.01,7.19,31.87,21.12,41.7-10.37-11.04-7.21-24.46-14.9-36.73,12.26,6.9,14.12,16.67,17.02,27.15,4.38,15.84,11.54,20.09,17.22,22.18-11.7,.45-28.66-4.53-36.78-20.1-8.61-16.51-1.45-34.41-22.48-43.77,9.6,8.06,14.73,19.52,8.69,34.42,2.26-21.92-20.63-25.51-24.31-40.45-.63,11.53,7.18,21.22,14.55,25.9-10.29-3.37-19.21-8.99-23.42-21.82-6.92,21.39,5.31,38.46,12.9,38.46,2.63,0,4.54-1.67,4.54-4.16,0-6.45-11.64-6.45-14.6-18.86,5.32,10.82,25.55,8.87,25.55,20.76,0,9.74-13.64,14.04-22.36,7.98,6.39,8.34,21.26,8.62,25.55-1.42,.66,4.31-1.31,10.76-7.45,13.13-6.99,2.7-13.48-2.48-13.48-2.48,7.64,11.01,20.94,3.67,34.07,3.9,10.87,.19,18.11,5.82,21.29,11.18-2.97-1.49-4.64-1.89-7.63-1.95,6.29,3.88,10.85,12.79,9.05,21.47-1.3-6.25-8.57-10.68-22.36-11.63-15.56-1.08-23.81-3.57-29.1-9.3,11.2,4.96,28.94-1.91,40.99,6.03-7.45-8.54-23.93-6.09-35.71-7.98C18.63,75.46,6.01,40.5,7.63,25.15c-5.66,23.42,9.46,36.2,12.79,49.13,3.63,14.13-3.37,23.83-9.95,28.8,10.28-15.4-7.42-24.63-4.61-44.36-5.23,19.19,4.44,24.66,4.44,34.6S1.71,106.32,0,118.88c-1.7-12.55-10.29-15.79-10.29-25.55S-.63,77.92-5.86,58.73c2.8,19.73-14.89,28.96-4.61,44.36-6.58-4.98-13.58-14.67-9.95-28.8C-17.09,61.35-1.98,48.57-7.63,25.15c1.62,15.35-11,50.31-31.71,53.63-11.78,1.89-28.26-.56-35.72,7.98,12.05-7.94,29.78-1.08,40.99-6.03-5.29,5.73-13.54,8.23-29.1,9.3-13.79,.96-21.06,5.38-22.36,11.63-1.8-8.67,2.75-17.59,9.05-21.47-2.99,.06-4.66,.46-7.63,1.95,3.19-5.36,10.42-10.99,21.29-11.18,13.13-.23,26.42,7.11,34.07-3.9,0,0-6.5,5.18-13.48,2.48-6.15-2.37-8.12-8.82-7.45-13.13,4.29,10.04,19.16,9.76,25.55,1.42-8.72,6.05-22.36,1.75-22.36-7.98,0-11.89,20.23-9.94,25.55-20.76-2.96,12.41-14.6,12.41-14.6,18.86,0,2.49,1.91,4.16,4.54,4.16,7.58,0,19.82-17.06,12.9-38.46-4.2,12.83-13.13,18.45-23.42,21.82,7.37-4.68,15.18-14.37,14.55-25.9-3.68,14.95-26.56,18.53-24.31,40.45-6.03-14.9-.91-26.37,8.7-34.42-21.03,9.37-13.87,27.26-22.48,43.77-8.12,15.57-25.08,20.55-36.78,20.1,5.67-2.09,12.84-6.33,17.22-22.18,2.9-10.48,4.77-20.25,17.02-27.15-7.69,12.27-4.54,25.69-14.9,36.73,13.92-9.83,10.5-27.68,21.11-41.7-10.62,3.41-19.68,9.38-23.6,18.63,2.91-15.76,19.71-32.53,49.15-36.55-30.33-1.29-36.17,15.55-51.46,16.16-9.68,.38-18.14-8.39-28.03-13.68,12.11,3.07,31.11,11.33,41.16-2.13,0,0-6.19,5.26-18.28,3.73-12.27-1.56-23.46-9.4-54.12-11.36,30.65-1.96,41.84-9.8,54.12-11.36,12.08-1.54,18.28,3.72,18.28,3.72-10.06-13.46-29.05-5.2-41.16-2.13,9.9-5.29,18.35-14.06,28.03-13.68,15.28,.61,21.13,17.45,51.46,16.16-29.44-4.02-46.23-20.79-49.15-36.55,3.92,9.25,12.98,15.22,23.6,18.63-10.62-14.01-7.19-31.87-21.11-41.7,10.37,11.04,7.21,24.46,14.9,36.73-12.26-6.89-14.13-16.67-17.02-27.14-4.38-15.85-11.55-20.09-17.22-22.18,11.7-.45,28.66,4.53,36.78,20.1,8.61,16.51,1.45,34.41,22.48,43.77-9.6-8.05-14.73-19.52-8.7-34.42-2.25,21.92,20.63,25.5,24.31,40.45,.63-11.53-7.18-21.22-14.55-25.9,10.29,3.37,19.22,8.99,23.42,21.82,6.93-21.39-5.31-38.46-12.9-38.46-2.63,0-4.54,1.67-4.54,4.16,0,6.45,11.64,6.45,14.6,18.85-5.32-10.82-25.55-8.87-25.55-20.76,0-9.74,13.64-14.04,22.36-7.98-6.39-8.34-21.26-8.62-25.55,1.42-.66-4.31,1.31-10.76,7.45-13.13,6.98-2.7,13.48,2.48,13.48,2.48-7.64-11.01-20.94-3.67-34.07-3.9-10.87-.19-18.11-5.82-21.29-11.18,2.97,1.48,4.64,1.88,7.63,1.95-6.29-3.88-10.85-12.8-9.05-21.47,1.3,6.25,8.57,10.68,22.36,11.63,15.56,1.08,23.81,3.57,29.1,9.3-11.2-4.96-28.94,1.91-40.99-6.03,7.45,8.54,23.93,6.09,35.72,7.98C-18.63-75.46-6.01-40.5-7.63-25.15c5.65-23.42-9.46-36.2-12.79-49.13-3.63-14.13,3.37-23.83,9.95-28.8-10.28,15.4,7.42,24.63,4.61,44.36,5.23-19.19-4.44-24.66-4.44-34.6S-1.71-106.32,0-118.88c1.71,12.55,10.29,15.79,10.29,25.55S.63-77.92,5.85-58.73c-2.8-19.73,14.89-28.96,4.61-44.36,6.58,4.97,13.58,14.67,9.95,28.8C17.09-61.35,1.97-48.57,7.63-25.15c-1.62-15.35,11-50.31,31.71-53.63,11.78-1.89,28.26,.56,35.71-7.98-12.05,7.94-29.79,1.07-40.99,6.03,5.29-5.74,13.54-8.23,29.1-9.3,13.78-.96,21.06-5.38,22.36-11.63,1.8,8.67-2.76,17.59-9.05,21.47,2.99-.07,4.66-.47,7.63-1.95-3.19,5.36-10.42,10.98-21.29,11.18-13.13,.23-26.43-7.11-34.07,3.9,0,0,6.5-5.18,13.48-2.48,6.14,2.37,8.12,8.82,7.45,13.13-4.29-10.04-19.16-9.76-25.55-1.42,8.72-6.05,22.36-1.75,22.36,7.98,0,11.89-20.23,9.94-25.55,20.76,2.96-12.4,14.6-12.4,14.6-18.85,0-2.49-1.91-4.16-4.54-4.16-7.59,0-19.82,17.06-12.9,38.46,4.21-12.84,13.13-18.45,23.42-21.82-7.37,4.68-15.18,14.37-14.55,25.9,3.68-14.95,26.56-18.53,24.31-40.45,6.03,14.9,.91,26.37-8.69,34.42,21.03-9.36,13.87-27.26,22.48-43.77,8.12-15.57,25.08-20.55,36.78-20.1-5.68,2.09-12.84,6.33-17.22,22.18-2.9,10.48-4.77,20.25-17.02,27.14,7.69-12.26,4.54-25.69,14.9-36.73-13.92,9.83-10.5,27.68-21.12,41.7,10.62-3.41,19.68-9.38,23.6-18.63-2.92,15.76-19.71,32.53-49.15,36.55,30.33,1.29,36.17-15.55,51.45-16.16,9.68-.38,18.14,8.39,28.04,13.68-12.11-3.07-31.11-11.33-41.16,2.13,0,0,6.19-5.26,18.28-3.72,12.27,1.56,23.46,9.4,54.12,11.36-30.65,1.96-41.84,9.8-54.12,11.36-12.08,1.53-18.28-3.73-18.28-3.73,10.06,13.46,29.05,5.2,41.16,2.13-9.9,5.29-18.35,14.06-28.04,13.68-15.28-.61-21.13-17.45-51.45-16.16ZM69.2,0c4.61,1.24,8.63,3.77,14.49,3.77,7.11,0,11.07-2.75,16.74-3.77-5.67-1.02-9.63-3.77-16.74-3.77-5.86,0-9.87,2.53-14.49,3.77ZM-3.02-90.31C-3.02-85.19,0-81.91,0-78.19c0-3.73,3.02-7,3.02-12.12C3.02-94.88,.77-96.96,0-101.75c-.77,4.78-3.02,6.87-3.02,11.44ZM-69.2,0c-4.61-1.24-8.63-3.77-14.49-3.77-7.11,0-11.07,2.75-16.74,3.77,5.67,1.02,9.63,3.77,16.74,3.77,5.85,0,9.88-2.53,14.49-3.77ZM3.02,90.31C3.02,85.19,0,81.91,0,78.19c0,3.72-3.02,7-3.02,12.12C-3.02,94.88-.77,96.96,0,101.74c.77-4.78,3.02-6.87,3.02-11.43ZM45.07,0C35.13,0,20.98-4.98,10.11-3.02c3.45-2.1,4.98-3.67,7.45-6.74-4.41,.43-6.76,.8-10.11,2.31,2.66-6.02,3.19-9.4,3.72-15.44-3.07,3.57-4.64,5.74-6.56,10.65C5.32-24.66,.35-27.49,0-44-.36-27.49-5.32-24.66-4.61-12.24c-1.92-4.91-3.49-7.08-6.56-10.65,.53,6.04,1.06,9.42,3.73,15.44-3.36-1.51-5.71-1.87-10.12-2.31,2.47,3.07,4,4.64,7.45,6.74C-20.98-4.98-35.13,0-45.07,0-35.13,0-20.98,4.98-10.11,3.02c-3.45,2.1-4.98,3.67-7.45,6.74,4.41-.43,6.76-.79,10.12-2.3-2.66,6.02-3.2,9.4-3.73,15.44,3.07-3.56,4.64-5.74,6.56-10.65C-5.32,24.66-.36,27.49,0,44,.35,27.49,5.32,24.66,4.61,12.24c1.93,4.9,3.5,7.08,6.56,10.65-.53-6.04-1.06-9.42-3.72-15.44,3.36,1.51,5.71,1.87,10.11,2.3-2.47-3.07-4-4.64-7.45-6.74C20.98,4.98,35.13,0,45.07,0Z"/>
          <path class="cls-20" d="M67.8,68.5c-5.52-4.58-10.66-12.46-11.44-22.75-1.08,10.23-3.2,18.13-8.21,23.96,0,0,6.33-3.1,8.62-9.15,2.96,5.25,11.04,7.94,11.04,7.94Z"/>
          <path class="cls-20" d="M81.8,119.38c-1.22-5.97-6.31-11.18-12.92-13.73,2.71,6.99,1.7,13.8-2.15,19.79,.9-7.77-1.47-13.21-5.79-18.04,1.36,4.83,1.24,9.27-1.08,13.87,.94-8.48-6.17-12.79-15.62-18.44-12.66-7.58-17.28-16.04-19.25-27.23,3.45,6.87,9.9,13.14,27.86,17.29,22.3,5.16,30.39,12.42,28.95,26.49Z"/>
          <path class="cls-23" d="M81.53,27.17c4.69,4.6,6.91,12.19,7.27,21.72,.47,12.53,5.41,17.66,13.33,18.53-11.8-4.58-4.44-17.11-7.94-25.85,6.44,4.79,4.38,20.68,17.63,21.4-9.78-3.2-2.84-16.68-9.29-24.5,7.81,.11,11.4-6.12,21.54-3.23-4.72-3.63-9.96-5.92-18.85-5.92,6.25-3.86,9-8.62,11.31-15.35-10.13,10.59-24.85,14.67-35,13.19Z"/>
          <path class="cls-6" d="M18.22,0C13.96-.66,8.83-3.2,4.09-1.22c2.32-1.8,1.14-3.52,2.53-5.2-1.92,1.39-3.51,.5-4.99,2.74C3.17-8.98,1.1-11.81,0-17.79-1.1-11.81-3.17-8.98-1.63-3.67c-1.47-2.24-3.07-1.36-4.98-2.74,1.38,1.68,.2,3.39,2.53,5.2-4.74-1.98-9.87,.55-14.13,1.22C-13.96,.67-8.83,3.2-4.09,1.22c-2.32,1.8-1.14,3.52-2.53,5.2,1.92-1.39,3.51-.5,4.98-2.74C-3.17,8.98-1.1,11.81,0,17.79,1.1,11.81,3.17,8.98,1.63,3.67c1.48,2.24,3.07,1.36,4.99,2.74-1.38-1.68-.21-3.39-2.53-5.2,4.74,1.98,9.87-.55,14.13-1.22Z"/>
        </g>
      </g>
    </pattern>
  </defs>
  <g id="Layer_1-2" data-name="Layer 1">
    <text class="cls-1" transform="translate(0 849.99)"><tspan x="0" y="0">mabis</tspan></text>
    <text class="cls-3" transform="translate(87.95 1370.07)"><tspan class="cls-14" x="0" y="0">w</tspan><tspan class="cls-15" x="489.46" y="0">ood</tspan><tspan class="cls-24" x="1701.59" y="0"> </tspan><tspan class="cls-8" x="1842.23" y="0">e</tspan><tspan class="cls-10" x="2131.2" y="0">k</tspan><tspan class="cls-9" x="2438.58" y="0">o</tspan></text>
    <line class="cls-31" x1="3137.5" y1="136" x2="3137.5" y2="1376.71"/>
    <path class="cls-26" d="M4035.79,355.71c18.2-138.82,200.95-179.86,200.95-179.86,0,0-46.48,128.23,149.41,348.6,179.8,202.31,22.81,400.6-9.4,437.22l-465.16,177.64-457.62-177.64c-10.13-12.45-106.85-135.47-73.81-262.9,34.83-134.47,234.05-204.2,244.01-353.62,0,0,99.58,99.58,39.88,229.07,2.82-1.76,184.24-115.61,184.24-253.97s-43.43-182.85-44.79-184.24c3.19,1.6,157.78,81.05,232.29,219.71Z"/>
    <path class="cls-7" d="M4186.94,715.38l-62.26,32.86c-.35,.19-.7,.37-1.05,.55-58.03,30.28-129.69,11.7-166.89-42.14-24.03-34.78-38.74-62.68-38.74-62.68-16.2,39.34-14.11,80.82-7.24,113.97-28.61-12.06-55.18-29.65-77.98-52.68-15.23-15.39-27.46-32.03-34.31-49.64,0,0-37.66,66.96-24.76,124.15,.12,.55,.29,1.16,.5,1.83,9.14,29.12,14.68,59,16.66,88.98-30.98-24.92-76.72-69.19-78.18-114.45,0,0-37.63,68.62,24.35,174.87,13.07,22.41,28.22,40.14,43.96,54.24-6.53,26.95-16.02,53.32-28.47,78.57h0l95.18-17.71,34.01-10.13c15.7,3.27,25.76,3.49,25.76,3.49l-.15-11.13,223.72-66.67c-30.99-37.95,11.05-91.9,11.05-91.9,0,0,49.8-79.68,44.82-154.38Z"/>
    <polygon class="cls-38" points="4376.75 961.67 4485.76 961.67 4485.76 1370.07 3360.23 1370.07 3360.23 961.67 3453.97 961.67 3598.14 961.67 3558.72 825.74 3683.1 789.71 3803.86 961.67 4376.75 961.67"/>
    <g>
      <path class="cls-12" d="M3957.85,1277.1h-393.44c-11.92,0-21.58-9.66-21.58-21.58s9.66-21.58,21.58-21.58h393.44c11.92,0,21.58,9.66,21.58,21.58s-9.66,21.58-21.58,21.58Z"/>
      <path class="cls-12" d="M4251.68,1182.48h-393.44c-11.92,0-21.58-9.66-21.58-21.58s9.66-21.58,21.58-21.58h393.44c11.92,0,21.58,9.66,21.58,21.58s-9.66,21.58-21.58,21.58Z"/>
      <path class="cls-12" d="M3753.66,1182.48h-79.68c-11.92,0-21.58-9.66-21.58-21.58s9.66-21.58,21.58-21.58h79.68c11.92,0,21.58,9.66,21.58,21.58s-9.66,21.58-21.58,21.58Z"/>
      <path class="cls-12" d="M4366.23,1182.47c-5.68,0-11.26-2.29-15.28-6.31-4.02-4.02-6.31-9.6-6.31-15.27s2.29-11.22,6.31-15.27c4.02-4.02,9.6-6.31,15.28-6.31s11.26,2.29,15.27,6.31c4.02,4.05,6.31,9.6,6.31,15.27s-2.29,11.26-6.31,15.27c-4.02,4.02-9.6,6.31-15.27,6.31Z"/>
      <path class="cls-12" d="M4117.22,1083.89h-74.7c-11.92,0-21.58-9.66-21.58-21.58s9.66-21.58,21.58-21.58h74.7c11.92,0,21.58,9.66,21.58,21.58,0,11.92-9.66,21.58-21.58,21.58Z"/>
      <path class="cls-12" d="M3619.19,1083.89h-74.7c-11.92,0-21.58-9.66-21.58-21.58s9.66-21.58,21.58-21.58h74.7c11.92,0,21.58,9.66,21.58,21.58,0,11.92-9.66,21.58-21.58,21.58Z"/>
    </g>
    <g>
      <path class="cls-7" d="M4040.32,641.03s-55.34-73.05-37.63-161.59c0,0,80.72,58.03,37.63,161.59Z"/>
      <path class="cls-7" d="M3626.38,778.27s-64.19-13.28-59.77-68.62c4.43-55.34-19.92-73.05-19.92-73.05,0,0,66.41,17.71,68.62,50.91,2.21,33.2,11.07,90.76,11.07,90.76Z"/>
    </g>
    <g>
      <rect class="cls-12" x="3360.23" y="1320.43" width="1125.52" height="49.63"/>
      <polygon class="cls-12" points="3598.14 961.67 3650.73 961.67 3597.49 814.51 3558.72 825.74 3598.14 961.67"/>
    </g>
    <text class="cls-4" transform="translate(1380.38 1443.92) rotate(-89.23) scale(1.39 1)"><tspan x="0" y="0">(</tspan></text>
    <text class="cls-2" transform="translate(92.62 1619.54)"><tspan x="0" y="0">ADUCEM </tspan><tspan class="cls-39" x="1016.08" y="0">C</tspan><tspan x="1176.7" y="0">ALDURA IN </tspan><tspan class="cls-39" x="2428.69" y="0">C</tspan><tspan class="cls-29" x="2589.31" y="0">A</tspan><tspan x="2753.94" y="0">SELE </tspan><tspan class="cls-35" x="3316.67" y="0">VO</tspan><tspan class="cls-29" x="3644.82" y="0">A</tspan><tspan class="cls-25" x="3809.44" y="0">S</tspan><tspan x="3939.54" y="0">TR</tspan><tspan class="cls-39" x="4208.88" y="0">E</tspan><tspan x="4339.2" y="0">.</tspan></text>
  </g>
</svg>