<svg xmlns="http://www.w3.org/2000/svg" viewBox="0 0 8200.29 1486.67"><defs><style>.cls-1,.cls-5{fill:#231f20;}.cls-2{fill:#985e26;}.cls-3{fill:#6bbe45;}.cls-4{fill:none;stroke:#231f20;stroke-miterlimit:10;stroke-width:50px;}.cls-5{font-size:93.13px;font-family:Posterama2001-Regular, "Posterama 2001";}.cls-6{fill:#80b241;}.cls-7{fill:#719c3f;}.cls-8{fill:#fdb932;}.cls-9{fill:#fff;}</style></defs><g id="Layer_2" data-name="Layer 2"><g id="Layer_1-2" data-name="Layer 1"><path class="cls-1" d="M78,715.77H22c-16,0-22-5-22-22v-655c0-23,5-33,20-33,11,0,19,8,38,29l279,335,275-335c21-23,27-29,38-29,15,0,20,10,20,33v655c0,17-6,22-22,22H592c-16,0-22-5-22-22v-466l-200,246c-17,23-24,28-35,28s-18-5-35-28l-200-246v466C100,710.77,94,715.77,78,715.77Z"/><path class="cls-1" d="M829,715.77H777c-13,0-20-4-20-13,0-3,2-9,5-17l301-634c20-41,26-50,39-50,12,0,17,9,37,50l304,634c3,8,5,14,5,17,0,9-7,13-21,13h-56c-21,0-28-6-40-30l-231-498-231,498C858,709.77,850,715.77,829,715.77Z"/><path class="cls-1" d="M1753,15.77c165,0,263,57,263,186,0,81-37,128-104,152,76,19,124,73,124,157,0,143-100,205-280,205H1557c-16,0-22-5-22-22v-656c0-17,6-22,22-22Zm-118,290c0,8,3,12,12,12h113c101,0,152-35,152-106,0-72-55-104-166-104h-99c-9,0-12,4-12,12Zm129,103H1647c-9,0-12,3-12,12v191c0,8,3,12,12,12h109c123,0,176-31,176-112C1932,436.77,1875,408.77,1764,408.77Z"/><path class="cls-1" d="M2183,715.77c-16,0-22-5-22-22v-656c0-17,6-22,22-22h56c16,0,22,5,22,22v656c0,17-6,22-22,22Z"/><path class="cls-1" d="M2435,561.77c61,47,122,71,183,71,92,0,151-42,151-107,0-62-38-85-158-116-140-35-216-84-216-201,0-127,102-204,236-204,84,0,160,26,228,79,7,5,10,10,10,15,0,4-3,9-7,16l-29,43c-5,8-10,11-15,11s-10-2-17-7c-53-39-108-63-171-63-76,0-130,40-130,104,0,65,45,89,154,116,152,39,219,89,219,200,0,126-107,208-257,208-91,0-170-33-237-86-7-7-11-12-11-17s2-10,7-17l30-42c5-7,10-11,15-11C2423,553.77,2428,556.77,2435,561.77Z"/><path class="cls-2" d="M132.23,1215.39,6.13,893.18a25.15,25.15,0,0,1-1.55-7.67c0-5.63,3.09-7.67,11.33-7.67h28.3c10.81,0,13.39,2.55,19,15.34l90.07,241.4,79.78-220.94c6.69-16.88,10.29-22.51,18-22.51,6.69,0,10.81,4.61,17.5,22.51l78.75,219.41,90.07-239.87c5.66-12.28,8.75-15.34,19-15.34h27.79c8.24,0,11.33,2,11.33,7.67a25.15,25.15,0,0,1-1.55,7.67L368,1215.39c-8.23,22-12.35,27.11-19,27.11s-11.32-5.63-19-25.58L250.09,999.56l-79.78,217.36c-6.69,19.95-10.8,25.58-18.52,25.58S140.46,1237.38,132.23,1215.39Z"/><path class="cls-2" d="M887.79,1056.33c1.54,103.82-81.84,187.19-187.35,185.14-102.94,2-185.8-80.29-184.26-183.09-1.54-103.83,82.35-188.22,186.32-186.17C806.46,870.68,889.33,953,887.79,1056.33Zm-53.53.51c0-79.27-58.68-136-132.28-136s-132.27,57.79-132.27,137.06c-1.55,76.72,58.67,136.56,131.24,135C773.52,1194.42,835.8,1133.05,834.26,1056.84Z"/><path class="cls-2" d="M1306.73,1056.33c1.55,103.82-81.83,187.19-187.34,185.14-102.94,2-185.8-80.29-184.26-183.09-1.54-103.83,82.35-188.22,186.32-186.17C1225.41,870.68,1308.28,953,1306.73,1056.33Zm-53.52.51c0-79.27-58.68-136-132.28-136s-132.27,57.79-132.27,137.06c-1.55,76.72,58.67,136.56,131.24,135C1192.47,1194.42,1254.75,1133.05,1253.21,1056.84Z"/><path class="cls-2" d="M1494.07,877.84c120.44,0,194.56,69.55,194.56,174.91,0,111-77.72,183.1-201.76,183.1H1387c-8.24,0-11.32-2.56-11.32-11.26V889.09c0-8.7,3.08-11.25,11.32-11.25Zm-66.9,303.79c0,4.09,1.54,5.63,6.17,5.63h54.56c93.16,0,147.2-50.63,147.2-132.46,0-77.23-54-128.38-145.14-128.38h-56.62c-4.63,0-6.17,1.54-6.17,5.63Z"/><path class="cls-3" d="M2116.83,1224.59c0,8.7-3.08,11.26-11.32,11.26H1910.44c-8.23,0-11.32-2.56-11.32-11.26V889.09c0-8.7,3.09-11.25,11.32-11.25H2105c8.23,0,11.32,2.55,11.32,11.25v26.08c0,8.7-3.09,11.25-11.32,11.25H1956.77c-4.64,0-6.18,1.54-6.18,5.63v93.59c0,4.61,1.54,6.14,6.18,6.14H2087.5c8.23,0,11.32,2.56,11.32,11.25v25.57c0,8.19-3.09,11.26-11.32,11.26H1956.77c-4.64,0-6.18,1.53-6.18,5.62v96.15c0,4.09,1.54,5.63,6.18,5.63h148.74c8.24,0,11.32,2.56,11.32,11.25Z"/><path class="cls-3" d="M2201.23,1235.85c-8.23,0-11.32-2.56-11.32-11.26V889.09c0-8.7,3.09-11.25,11.32-11.25h28.83c8.23,0,11.32,2.55,11.32,11.25v335.5c0,8.7-3.09,11.26-11.32,11.26Zm245.51-358c6.69,0,9.78,2,9.78,5.62,0,2-1,4.6-3.6,7.16l-139.48,163.66,143.08,168.27c2.57,3.58,4.12,6.14,4.12,7.67,0,3.58-3.61,5.63-10.3,5.63h-35.51c-11.84,0-14.93-2-23.16-11.77l-132.28-158.54c-3.09-3.58-4.63-7.16-4.63-9.72,0-3.07,1.54-6.65,5.15-10.23l130.73-155.48c8.23-10.23,11.84-12.27,22.64-12.27Z"/><path class="cls-3" d="M2849.22,1056.33c1.55,103.82-81.83,187.19-187.34,185.14-102.94,2-185.81-80.29-184.26-183.09-1.55-103.83,82.35-188.22,186.31-186.17C2767.9,870.68,2850.77,953,2849.22,1056.33Zm-53.53.51c0-79.27-58.67-136-132.27-136s-132.28,57.79-132.28,137.06c-1.54,76.72,58.68,136.56,131.25,135C2735,1194.42,2797.24,1133.05,2795.69,1056.84Z"/><line class="cls-4" x1="3049.5" y1="1.78" x2="3049.5" y2="1242.49"/><text class="cls-5" transform="translate(1292.38 1309.69) rotate(-89.23) scale(1.39 1)">(</text><path class="cls-1" d="M20.6,1485.31H8.9c-2.93,0-4.5-.89-4.5-2.89a15,15,0,0,1,1.12-3.79l67.72-141.24c4.5-9.13,5.85-11.14,8.78-11.14,2.7,0,3.82,2,8.32,11.14l68.39,141.24a14.77,14.77,0,0,1,1.13,3.79c0,2-1.58,2.89-4.73,2.89H142.54c-4.73,0-6.3-1.33-9-6.68l-52-110.94-52,110.94C27.12,1484,25.32,1485.31,20.6,1485.31Z"/><path class="cls-1" d="M231.18,1329.37c52.64,0,85,30.3,85,76.19,0,48.34-34,79.75-88.19,79.75H184.38c-3.6,0-4.95-1.11-4.95-4.9V1334.27c0-3.79,1.35-4.9,4.95-4.9ZM201.93,1461.7c0,1.78.67,2.45,2.7,2.45h23.85c40.72,0,64.34-22.05,64.34-57.7,0-33.64-23.62-55.92-63.44-55.92H204.63c-2,0-2.7.67-2.7,2.45Z"/><path class="cls-1" d="M345.46,1419.59v-85.32c0-3.79,1.35-4.9,5-4.9h12.38c3.82,0,5.17,1.11,5.17,4.9v84c0,30.52,14.85,48.34,41.85,48.34s42.74-18.27,42.74-48.12v-84.21c0-3.79,1.35-4.9,4.73-4.9h12.6c3.82,0,5.17,1.11,5.17,4.9v84.66c0,45.44-27.45,68.83-66.14,68.83C371.56,1487.76,345.46,1465.71,345.46,1419.59Z"/><path class="cls-1" d="M634.11,1448.56c1.13,0,2.47,1.11,3.37,2.22l6.53,8.92a5.3,5.3,0,0,1,1.12,3.11c0,1.12-.9,2.45-2.7,4a90.46,90.46,0,0,1-58.26,20.94c-43.65.9-81-34.53-80.1-79.75-.67-45.67,36-81.76,81.45-81.09a90,90,0,0,1,57.14,20.72c1.57,1.11,2.25,2.22,2.25,3.34a6.41,6.41,0,0,1-1.35,3.56l-6.52,8.69c-1.13,1.56-2.48,2.45-3.6,2.45a8.1,8.1,0,0,1-3.83-1.78c-12.82-9.8-28.12-15.82-44.54-15.82-32.18,0-57.6,25-57.6,59.48-.45,33,25.42,59.71,57.6,59a70.17,70.17,0,0,0,45.22-16C631.86,1449.22,633.21,1448.56,634.11,1448.56Z"/><path class="cls-1" d="M766.4,1480.41c0,3.79-1.35,4.9-4.95,4.9H676.18c-3.6,0-4.95-1.11-4.95-4.9V1334.27c0-3.79,1.35-4.9,4.95-4.9h85c3.6,0,4.95,1.11,4.95,4.9v11.36c0,3.79-1.35,4.9-4.95,4.9H696.43c-2,0-2.7.67-2.7,2.45v40.77c0,2,.67,2.68,2.7,2.68h57.14c3.6,0,4.95,1.11,4.95,4.9v11.14c0,3.56-1.35,4.9-4.95,4.9H696.43c-2,0-2.7.66-2.7,2.45v41.88c0,1.78.67,2.45,2.7,2.45h65c3.6,0,4.95,1.11,4.95,4.9Z"/><path class="cls-1" d="M815.89,1485.31h-12.6c-3.6,0-4.95-1.11-4.95-4.9V1334.49c0-5.12,1.13-7.35,4.5-7.35,2.48,0,4.28,1.78,8.55,6.46l62.77,74.63L936,1333.6c4.72-5.12,6.07-6.46,8.55-6.46,3.37,0,4.5,2.23,4.5,7.35v145.92c0,3.79-1.35,4.9-5,4.9h-12.6c-3.6,0-4.95-1.11-4.95-4.9V1376.6l-45,54.8c-3.82,5.13-5.4,6.24-7.87,6.24s-4.05-1.11-7.88-6.24l-45-54.8v103.81C820.84,1484.2,819.49,1485.31,815.89,1485.31Z"/><path class="cls-1" d="M1171.13,1448.56c1.12,0,2.47,1.11,3.37,2.22l6.53,8.92a5.3,5.3,0,0,1,1.12,3.11c0,1.12-.9,2.45-2.7,4a90.47,90.47,0,0,1-58.27,20.94c-43.64.9-81-34.53-80.09-79.75-.67-45.67,36-81.76,81.44-81.09a90.05,90.05,0,0,1,57.15,20.72c1.57,1.11,2.25,2.22,2.25,3.34a6.41,6.41,0,0,1-1.35,3.56l-6.53,8.69c-1.12,1.56-2.47,2.45-3.6,2.45a8,8,0,0,1-3.82-1.78c-12.83-9.8-28.12-15.82-44.55-15.82-32.17,0-57.59,25-57.59,59.48-.45,33,25.42,59.71,57.59,59a70.13,70.13,0,0,0,45.22-16C1168.88,1449.22,1170.23,1448.56,1171.13,1448.56Z"/><path class="cls-1" d="M1208.92,1485.31h-11.7c-2.92,0-4.5-.89-4.5-2.89a14.77,14.77,0,0,1,1.13-3.79l67.72-141.24c4.5-9.13,5.85-11.14,8.77-11.14,2.7,0,3.82,2,8.32,11.14l68.4,141.24a15,15,0,0,1,1.12,3.79c0,2-1.57,2.89-4.72,2.89h-12.6c-4.73,0-6.3-1.33-9-6.68l-52-110.94-52,110.94C1215.45,1484,1213.65,1485.31,1208.92,1485.31Z"/><path class="cls-1" d="M1459.32,1464.15c3.6,0,5,1.11,5,4.9v11.36c0,3.79-1.35,4.9-5,4.9h-86.61c-3.6,0-5-1.11-5-4.9V1334.27c0-3.79,1.35-4.9,5-4.9h12.59c3.6,0,5,1.11,5,4.9V1461.7c0,1.78.68,2.45,2.7,2.45Z"/><path class="cls-1" d="M1543.69,1329.37c52.64,0,85,30.3,85,76.19,0,48.34-34,79.75-88.19,79.75h-43.65c-3.6,0-5-1.11-5-4.9V1334.27c0-3.79,1.35-4.9,5-4.9Zm-29.25,132.33c0,1.78.67,2.45,2.7,2.45H1541c40.72,0,64.34-22.05,64.34-57.7,0-33.64-23.62-55.92-63.44-55.92h-24.75c-2,0-2.7.67-2.7,2.45Z"/><path class="cls-1" d="M1658,1419.59v-85.32c0-3.79,1.35-4.9,5-4.9h12.38c3.82,0,5.17,1.11,5.17,4.9v84c0,30.52,14.85,48.34,41.85,48.34s42.74-18.27,42.74-48.12v-84.21c0-3.79,1.35-4.9,4.73-4.9h12.6c3.82,0,5.17,1.11,5.17,4.9v84.66c0,45.44-27.45,68.83-66.14,68.83C1684.07,1487.76,1658,1465.71,1658,1419.59Z"/><path class="cls-1" d="M1831,1485.31c-3.6,0-5-1.11-5-4.9V1334.27c0-3.79,1.35-4.9,5-4.9h43c42.75,0,64.12,16,64.12,48.34,0,21.39-11.47,35.2-30.6,41.66l38.7,59.26a8.25,8.25,0,0,1,1.8,4.23c0,1.79-1.58,2.45-5,2.45h-13.27c-5.18,0-6.53-.89-9.9-6l-41.4-65a5.3,5.3,0,0,1-1.35-3.12c0-1.11,1.13-1.78,3.38-2,22.72-2.45,34-12.47,34-30.07,0-20.27-14.63-29.19-41.62-29.19h-21.6c-2,0-2.7.67-2.7,2.68v127.87c0,3.79-1.35,4.9-5,4.9Z"/><path class="cls-1" d="M1965.07,1485.31h-11.7c-2.92,0-4.5-.89-4.5-2.89a14.77,14.77,0,0,1,1.13-3.79l67.71-141.24c4.5-9.13,5.85-11.14,8.78-11.14,2.7,0,3.82,2,8.32,11.14l68.39,141.24a14.77,14.77,0,0,1,1.13,3.79c0,2-1.58,2.89-4.73,2.89H2087c-4.73,0-6.3-1.33-9-6.68l-52-110.94-52,110.94C1971.59,1484,1969.79,1485.31,1965.07,1485.31Z"/><path class="cls-1" d="M2190.72,1485.31c-3.6,0-4.95-1.11-4.95-4.9V1334.27c0-3.79,1.35-4.9,4.95-4.9h12.6c3.6,0,4.95,1.11,4.95,4.9v146.14c0,3.79-1.35,4.9-4.95,4.9Z"/><path class="cls-1" d="M2370.7,1329.37c3.6,0,5,1.11,5,4.9v146.14c0,4.9-1.58,7.35-4.5,7.35-2.48,0-4.73-1.55-9.45-6.9l-91.34-106.71v106.26c0,3.79-1.35,4.9-5,4.9h-12.6c-3.6,0-4.95-1.11-4.95-4.9V1334.27c0-5.12,1.35-7.35,4.73-7.35,2.47,0,4.72,1.56,9.22,6.9l91.34,106.72V1334.27c0-3.79,1.35-4.9,4.95-4.9Z"/><path class="cls-1" d="M2597.7,1448.56c1.12,0,2.47,1.11,3.37,2.22l6.53,8.92a5.3,5.3,0,0,1,1.12,3.11c0,1.12-.9,2.45-2.7,4a90.47,90.47,0,0,1-58.27,20.94c-43.64.9-81-34.53-80.09-79.75-.67-45.67,36-81.76,81.44-81.09a90.05,90.05,0,0,1,57.15,20.72c1.57,1.11,2.25,2.22,2.25,3.34a6.41,6.41,0,0,1-1.35,3.56l-6.53,8.69c-1.12,1.56-2.47,2.45-3.6,2.45a8,8,0,0,1-3.82-1.78c-12.82-9.8-28.12-15.82-44.55-15.82-32.17,0-57.59,25-57.59,59.48-.45,33,25.42,59.71,57.59,59a70.13,70.13,0,0,0,45.22-16C2595.45,1449.22,2596.8,1448.56,2597.7,1448.56Z"/><path class="cls-1" d="M2635.49,1485.31h-11.7c-2.92,0-4.5-.89-4.5-2.89a14.77,14.77,0,0,1,1.13-3.79l67.72-141.24c4.5-9.13,5.85-11.14,8.77-11.14,2.7,0,3.83,2,8.33,11.14l68.39,141.24a15,15,0,0,1,1.12,3.79c0,2-1.57,2.89-4.72,2.89h-12.6c-4.72,0-6.3-1.33-9-6.68l-52-110.94-52,110.94C2642,1484,2640.22,1485.31,2635.49,1485.31Z"/><path class="cls-1" d="M2805.12,1451c13.73,10.47,27.45,15.81,41.17,15.81,20.7,0,34-9.35,34-23.83,0-13.82-8.55-18.94-35.55-25.85-31.5-7.79-48.6-18.71-48.6-44.77,0-28.3,23-45.45,53.1-45.45a81.74,81.74,0,0,1,51.29,17.6c1.58,1.11,2.25,2.23,2.25,3.34,0,.89-.67,2-1.57,3.56l-6.53,9.58c-1.12,1.79-2.25,2.45-3.37,2.45a6.63,6.63,0,0,1-3.83-1.55c-11.92-8.69-24.29-14-38.47-14-17.09,0-29.24,8.91-29.24,23.17,0,14.48,10.12,19.83,34.64,25.84,34.2,8.69,49.27,19.83,49.27,44.56,0,28.07-24.07,46.33-57.82,46.33-20.47,0-38.24-7.35-53.32-19.15-1.57-1.56-2.47-2.68-2.47-3.79a6.49,6.49,0,0,1,1.57-3.79l6.75-9.36c1.13-1.56,2.25-2.45,3.38-2.45C2802.42,1449.22,2803.55,1449.89,2805.12,1451Z"/><path class="cls-1" d="M3028.75,1480.41c0,3.79-1.35,4.9-4.95,4.9h-85.27c-3.6,0-5-1.11-5-4.9V1334.27c0-3.79,1.35-4.9,5-4.9h85c3.6,0,4.95,1.11,4.95,4.9v11.36c0,3.79-1.35,4.9-4.95,4.9h-64.79c-2,0-2.7.67-2.7,2.45v40.77c0,2,.68,2.68,2.7,2.68h57.14c3.6,0,4.95,1.11,4.95,4.9v11.14c0,3.56-1.35,4.9-4.95,4.9h-57.14c-2,0-2.7.66-2.7,2.45v41.88c0,1.78.68,2.45,2.7,2.45h65c3.6,0,4.95,1.11,4.95,4.9Z"/><path class="cls-1" d="M3152.26,1464.15c3.6,0,4.95,1.11,4.95,4.9v11.36c0,3.79-1.35,4.9-4.95,4.9h-86.62c-3.6,0-4.95-1.11-4.95-4.9V1334.27c0-3.79,1.35-4.9,4.95-4.9h12.6c3.6,0,5,1.11,5,4.9V1461.7c0,1.78.68,2.45,2.7,2.45Z"/><path class="cls-1" d="M3280,1480.41c0,3.79-1.35,4.9-4.95,4.9h-85.26c-3.6,0-4.95-1.11-4.95-4.9V1334.27c0-3.79,1.35-4.9,4.95-4.9h85c3.6,0,5,1.11,5,4.9v11.36c0,3.79-1.35,4.9-5,4.9h-64.79c-2,0-2.7.67-2.7,2.45v40.77c0,2,.67,2.68,2.7,2.68h57.14c3.6,0,5,1.11,5,4.9v11.14c0,3.56-1.35,4.9-5,4.9h-57.14c-2,0-2.7.66-2.7,2.45v41.88c0,1.78.67,2.45,2.7,2.45h65c3.6,0,4.95,1.11,4.95,4.9Z"/><path class="cls-1" d="M3493.09,1329.37h11.48c3.15,0,4.72.89,4.72,2.9a15.12,15.12,0,0,1-1.12,3.78l-67.94,141.24c-3.83,8.69-5.85,11.14-8.55,11.14s-4.28-2.22-8.55-11.14L3355,1336.05a14.85,14.85,0,0,1-1.13-3.78c0-2,1.58-2.9,4.73-2.9h12.37c4.73,0,6.53,1.34,9,6.68l52.2,111,51.74-111C3486.57,1330.71,3488.37,1329.37,3493.09,1329.37Z"/><path class="cls-1" d="M3678.48,1407.12c.67,45.22-35.77,81.54-81.9,80.64A78.41,78.41,0,0,1,3516,1408a79.74,79.74,0,0,1,81.44-81.09C3642.93,1326.25,3679.15,1362.12,3678.48,1407.12Zm-23.4.22c0-34.53-25.65-59.26-57.82-59.26s-57.82,25.18-57.82,59.71c-.67,33.41,25.65,59.48,57.37,58.81C3628.53,1467.27,3655.75,1440.54,3655.08,1407.34Z"/><path class="cls-1" d="M3701.43,1485.31h-11.7c-2.93,0-4.5-.89-4.5-2.89a15,15,0,0,1,1.12-3.79l67.72-141.24c4.5-9.13,5.85-11.14,8.77-11.14,2.7,0,3.83,2,8.33,11.14l68.39,141.24a14.77,14.77,0,0,1,1.13,3.79c0,2-1.58,2.89-4.73,2.89h-12.6c-4.72,0-6.3-1.33-9-6.68l-52-110.94-52,110.94C3708,1484,3706.15,1485.31,3701.43,1485.31Z"/><path class="cls-1" d="M3871.06,1451c13.72,10.47,27.44,15.81,41.17,15.81,20.69,0,34-9.35,34-23.83,0-13.82-8.55-18.94-35.55-25.85-31.49-7.79-48.59-18.71-48.59-44.77,0-28.3,22.94-45.45,53.09-45.45a81.77,81.77,0,0,1,51.3,17.6c1.57,1.11,2.25,2.23,2.25,3.34,0,.89-.68,2-1.58,3.56l-6.52,9.58c-1.13,1.79-2.25,2.45-3.38,2.45a6.61,6.61,0,0,1-3.82-1.55c-11.93-8.69-24.3-14-38.47-14-17.1,0-29.25,8.91-29.25,23.17,0,14.48,10.12,19.83,34.65,25.84,34.19,8.69,49.27,19.83,49.27,44.56,0,28.07-24.08,46.33-57.82,46.33-20.48,0-38.25-7.35-53.32-19.15-1.58-1.56-2.48-2.68-2.48-3.79a6.45,6.45,0,0,1,1.58-3.79l6.75-9.36c1.12-1.56,2.25-2.45,3.37-2.45C3868.36,1449.22,3869.48,1449.89,3871.06,1451Z"/><path class="cls-1" d="M4061.61,1350.53c-2,0-2.7.67-2.7,2.45v127.43c0,3.79-1.35,4.9-4.95,4.9h-12.6c-3.6,0-5-1.11-5-4.9V1353c0-1.78-.67-2.45-2.7-2.45h-42.29c-3.6,0-5-1.11-5-4.9v-11.36c0-3.79,1.35-4.9,5-4.9H4103.9c3.6,0,5,1.11,5,4.9v11.36c0,3.79-1.35,4.9-5,4.9Z"/><path class="cls-1" d="M4137,1485.31c-3.6,0-4.95-1.11-4.95-4.9V1334.27c0-3.79,1.35-4.9,4.95-4.9h43c42.74,0,64.11,16,64.11,48.34,0,21.39-11.47,35.2-30.59,41.66l38.69,59.26a8.17,8.17,0,0,1,1.8,4.23c0,1.79-1.57,2.45-4.95,2.45h-13.27c-5.17,0-6.52-.89-9.9-6l-41.39-65a5.3,5.3,0,0,1-1.35-3.12c0-1.11,1.12-1.78,3.37-2,22.72-2.45,34-12.47,34-30.07,0-20.27-14.62-29.19-41.62-29.19h-21.6c-2,0-2.7.67-2.7,2.68v127.87c0,3.79-1.35,4.9-5,4.9Z"/><path class="cls-1" d="M4370.05,1480.41c0,3.79-1.35,4.9-4.95,4.9h-85.26c-3.6,0-4.95-1.11-4.95-4.9V1334.27c0-3.79,1.35-4.9,4.95-4.9h85c3.6,0,4.95,1.11,4.95,4.9v11.36c0,3.79-1.35,4.9-4.95,4.9h-64.8c-2,0-2.7.67-2.7,2.45v40.77c0,2,.68,2.68,2.7,2.68h57.15c3.6,0,5,1.11,5,4.9v11.14c0,3.56-1.35,4.9-5,4.9h-57.15c-2,0-2.7.66-2.7,2.45v41.88c0,1.78.68,2.45,2.7,2.45h65c3.6,0,4.95,1.11,4.95,4.9Z"/><path class="cls-1" d="M4426.29,1474.18c0,7.79-6.07,13.14-14.17,13.14s-13.95-5.35-13.95-13.14,6.07-13.37,13.95-13.37C4420.22,1460.81,4426.29,1466.38,4426.29,1474.18Z"/><path class="cls-6" d="M3838.62,1080.78c46.84-121.42,170.17-181.16,270.59-196.88-147.1,75-220.52,154.68-272.51,316.9l30,7.32a398.71,398.71,0,0,1,34-86.31c102.6,33.64,196.13,23.44,272.3-56.74,94.64-115.9,63.18-241.69,23.43-368.13-37.84,121.74-248.77,103.35-327.9,245.94-16.71,30.1-30.72,59.72-41.94,89.8"/><path class="cls-7" d="M3875.76,946.75c101.66-126.46,292.15-121.4,320.68-249.8-44,94.3-190.11,58.65-290.21,139.27-58,49-93.61,109.69-79.64,196.48C3837.81,1002.61,3854.77,974.12,3875.76,946.75Z"/><path class="cls-6" d="M3770,1080.78c-46.85-121.42-170.18-181.16-270.6-196.88,147.11,75,220.53,154.68,272.52,316.9l-30,7.32a398.7,398.7,0,0,0-34-86.31c-102.6,33.64-196.14,23.44-272.31-56.74-94.63-115.9-63.17-241.69-23.43-368.13C3450,818.68,3661,800.29,3740.1,942.88c16.7,30.1,30.71,59.72,41.93,89.8"/><path class="cls-7" d="M3732.87,946.75c-101.65-126.47-292.15-121.4-320.69-249.81,44,94.3,190.11,58.65,290.21,139.27,58,49,93.61,109.69,79.64,196.48C3770.81,1002.61,3753.85,974.12,3732.87,946.75Z"/><path class="cls-8" d="M3808.88,602.28c-117.34,0-212.79-95.45-212.79-212.79s95.45-212.8,212.79-212.8,212.8,95.46,212.8,212.8S3926.22,602.28,3808.88,602.28Z"/><path class="cls-8" d="M3808.88,137a17.32,17.32,0,0,1-17.31-17.31V17.31a17.31,17.31,0,1,1,34.62,0v102.4A17.31,17.31,0,0,1,3808.88,137Z"/><path class="cls-8" d="M3808.88,779a17.32,17.32,0,0,1-17.31-17.31V659.27a17.31,17.31,0,1,1,34.62,0V761.66A17.31,17.31,0,0,1,3808.88,779Z"/><path class="cls-8" d="M3539.11,406.8h-102.4a17.31,17.31,0,1,1,0-34.62h102.4a17.31,17.31,0,0,1,0,34.62Z"/><path class="cls-8" d="M4181.06,406.8H4078.67a17.31,17.31,0,1,1,0-34.62h102.39a17.31,17.31,0,0,1,0,34.62Z"/><path class="cls-8" d="M3999.65,216a17.32,17.32,0,0,1-12.24-29.55l72.4-72.41a17.31,17.31,0,1,1,24.48,24.47L4011.88,211A17.2,17.2,0,0,1,3999.65,216Z"/><path class="cls-8" d="M3545.71,670a17.31,17.31,0,0,1-12.24-29.55l72.41-72.4a17.31,17.31,0,0,1,24.48,24.48L3558,664.89A17.24,17.24,0,0,1,3545.71,670Z"/><path class="cls-8" d="M3618.12,216a17.22,17.22,0,0,1-12.24-5.08l-72.41-72.41A17.31,17.31,0,0,1,3558,114.08l72.41,72.41A17.32,17.32,0,0,1,3618.12,216Z"/><path class="cls-8" d="M4072.05,670a17.26,17.26,0,0,1-12.24-5.07l-72.4-72.4A17.31,17.31,0,0,1,4011.88,568l72.41,72.4A17.31,17.31,0,0,1,4072.05,670Z"/><path class="cls-8" d="M3705.65,157.56a17.31,17.31,0,0,1-16-10.69l-19.76-47.72a17.31,17.31,0,0,1,32-13.24l19.76,47.72a17.31,17.31,0,0,1-16,23.93Z"/><path class="cls-8" d="M3931.9,703.77a17.34,17.34,0,0,1-16-10.69l-19.77-47.72a17.31,17.31,0,0,1,32-13.25l19.77,47.72a17.34,17.34,0,0,1-16,23.94Z"/><path class="cls-8" d="M3912.12,157.56a17.31,17.31,0,0,1-16-23.94L3915.9,85.9a17.31,17.31,0,0,1,32,13.25l-19.77,47.72A17.3,17.3,0,0,1,3912.12,157.56Z"/><path class="cls-8" d="M3685.88,703.77a17.34,17.34,0,0,1-16-23.94l19.76-47.72a17.31,17.31,0,0,1,32,13.25l-19.76,47.72A17.35,17.35,0,0,1,3685.88,703.77Z"/><path class="cls-8" d="M3511.93,529.81a17.31,17.31,0,0,1-6.64-33.3L3553,476.74a17.31,17.31,0,1,1,13.25,32l-47.72,19.77A17.29,17.29,0,0,1,3511.93,529.81Z"/><path class="cls-8" d="M4058.14,303.56a17.31,17.31,0,0,1-6.64-33.31l47.72-19.76a17.31,17.31,0,0,1,13.25,32l-47.72,19.76A17.32,17.32,0,0,1,4058.14,303.56Z"/><path class="cls-8" d="M3559.63,303.56a17.15,17.15,0,0,1-6.61-1.33l-47.72-19.76a17.31,17.31,0,0,1,13.24-32l47.72,19.76a17.32,17.32,0,0,1-6.63,33.32Z"/><path class="cls-8" d="M4105.84,529.81a17.37,17.37,0,0,1-6.62-1.32l-47.72-19.77a17.31,17.31,0,1,1,13.25-32l47.72,19.77a17.31,17.31,0,0,1-6.63,33.3Z"/><path class="cls-9" d="M3918.84,406.8a17.32,17.32,0,0,1-17.31-17.31,92.76,92.76,0,0,0-92.65-92.66,17.31,17.31,0,1,1,0-34.62c70.17,0,127.27,57.1,127.27,127.28A17.32,17.32,0,0,1,3918.84,406.8Z"/></g></g></svg>